<svg width="78" height="76" viewBox="0 0 78 76" fill="none" xmlns="http://www.w3.org/2000/svg">
<path d="M70.1052 67.4644H11.0356V34.0527H70.1052V67.4644Z" fill="white"/>
<path d="M71.7966 1.34595C74.7571 1.34595 77.1538 3.74257 77.1538 6.70309C77.1538 9.66362 74.7571 12.0602 71.7966 12.0602C68.8361 12.0602 66.4395 9.66362 66.4395 6.70309C66.4395 3.74257 68.8361 1.34595 71.7966 1.34595Z" fill="white"/>
<path d="M9.34328 10.2273C11.317 10.2273 12.8677 11.778 12.8677 13.7517C12.8677 15.7254 11.317 17.2762 9.34328 17.2762C7.3696 17.2762 5.81885 15.7254 5.81885 13.7517C5.81885 11.778 7.3696 10.2273 9.34328 10.2273Z" fill="white"/>
<path d="M58.6856 55.3401C60.8003 55.3401 62.633 57.0318 62.633 59.2874C62.633 61.4021 60.9413 63.2348 58.6856 63.2348C56.571 63.2348 54.7383 61.5431 54.7383 59.2874C54.7383 58.1596 55.1612 57.3138 55.8661 56.6089C56.7119 55.763 57.6988 55.3401 58.6856 55.3401Z" fill="white"/>
<path d="M47.1263 43.78C49.241 43.78 51.0737 45.4718 51.0737 47.7274C51.0737 48.8552 50.6507 49.7011 49.9458 50.406C49.241 51.1109 48.2542 51.5338 47.2673 51.5338C46.2805 51.5338 45.2936 51.1109 44.5887 50.406C43.8838 49.7011 43.4609 48.7142 43.4609 47.7274C43.179 45.4718 44.8707 43.78 47.1263 43.78Z" fill="white"/>
<path d="M36.6932 56.4679C37.3981 57.1728 37.821 58.1596 37.821 59.1465C37.821 61.2611 36.1293 63.0938 33.8736 63.0938C31.759 63.0938 29.9263 61.4021 29.9263 59.1465C29.9263 58.0187 30.3492 57.1728 31.0541 56.4679C31.759 55.763 32.7457 55.3401 33.7326 55.3401C35.0014 55.3401 35.9883 55.763 36.6932 56.4679Z" fill="white"/>
<path d="M74.8981 19.9548C75.603 19.9548 76.167 20.5187 76.167 21.2236C76.167 21.9285 75.603 22.4924 74.8981 22.4924C74.1933 22.4924 73.6294 21.9285 73.6294 21.2236C73.6294 20.5187 74.1933 19.9548 74.8981 19.9548Z" fill="#EB6320"/>
<path d="M74.8981 41.1016C75.603 41.1016 76.167 41.6655 76.167 42.3704C76.167 43.0752 75.603 43.6392 74.8981 43.6392C74.1933 43.6392 73.6294 43.0752 73.6294 42.3704C73.6294 41.6655 74.1933 41.1016 74.8981 41.1016Z" fill="#EB6320"/>
<path d="M72.7836 29.6824V34.0527H70.1051H11.0355H8.35693V29.6824H72.7836Z" fill="white"/>
<path d="M66.7216 21.6467C70.1051 21.6467 72.7836 24.3253 72.7836 27.7088V29.6824H8.35693V27.7088C8.35693 24.3253 11.0356 21.6467 14.419 21.6467H66.7216Z" fill="white"/>
<path d="M70.1052 67.4644V69.579C70.1052 72.3986 67.8496 74.5132 65.171 74.5132H15.9699C13.1503 74.5132 11.0356 72.2576 11.0356 69.579V67.4644H70.1052Z" fill="white"/>
<path d="M59.1091 0.641113C59.814 0.641113 60.3779 1.20503 60.3779 1.90991C60.3779 2.6148 59.814 3.17871 59.1091 3.17871C58.4042 3.17871 57.8403 2.6148 57.8403 1.90991C57.8403 1.20503 58.4042 0.641113 59.1091 0.641113Z" fill="#EB6320"/>
<path d="M43.1784 7.68994C43.8833 7.68994 44.4472 8.25385 44.4472 8.95874C44.4472 9.66363 43.8833 10.2275 43.1784 10.2275C42.4735 10.2275 41.9097 9.66363 41.9097 8.95874C41.9097 8.25385 42.4735 7.68994 43.1784 7.68994Z" fill="#EB6320"/>
<path d="M22.3132 43.78C24.4279 43.78 26.2606 45.4718 26.2606 47.7274C26.2606 48.8552 25.8377 49.7011 25.1328 50.406C24.4279 51.1109 23.441 51.5338 22.4542 51.5338C20.3395 51.5338 18.5068 49.8421 18.5068 47.5864C18.5068 45.3308 20.0576 43.78 22.3132 43.78Z" fill="white"/>
<path d="M18.507 2.33276C19.2119 2.33276 19.7759 2.89668 19.7759 3.60156C19.7759 4.30645 19.2119 4.87036 18.507 4.87036C17.8021 4.87036 17.2383 4.30645 17.2383 3.60156C17.2383 2.89668 17.8021 2.33276 18.507 2.33276Z" fill="#EB6320"/>
<path d="M6.52143 59.1503C6.52302 58.4495 5.95625 57.8802 5.25551 57.8786C4.55478 57.877 3.98543 58.4438 3.98384 59.1445C3.98225 59.8452 4.54902 60.4146 5.24975 60.4162C5.95049 60.4178 6.51984 59.851 6.52143 59.1503Z" fill="#EB6320"/>
<path d="M3.00336 35.3273C3.00495 34.6265 2.43818 34.0572 1.73744 34.0556C1.03671 34.0541 0.467359 34.6208 0.46577 35.3215C0.46418 36.0222 1.03095 36.5916 1.73169 36.5932C2.43242 36.5948 3.00177 36.028 3.00336 35.3273Z" fill="#EB6320"/>
<path d="M72.7838 34.8983H70.1052C69.6823 34.8983 69.2593 34.4753 69.2593 34.0524C69.2593 33.6295 69.6823 33.2065 70.1052 33.2065H71.9379V27.7084C71.9379 24.8889 69.6822 22.6332 66.8627 22.6332H14.4192C11.5996 22.6332 9.34392 24.8889 9.34392 27.7084V33.2065H11.0357C11.4586 33.2065 11.8815 33.6295 11.8815 34.0524C11.8815 34.4753 11.4586 34.8983 11.0357 34.8983H8.35706C7.93413 34.8983 7.51123 34.4753 7.51123 34.0524V27.7084C7.51123 23.902 10.6128 20.8005 14.4192 20.8005H66.7218C70.5281 20.8005 73.6297 23.902 73.6297 27.7084V34.0524C73.6297 34.4753 73.2067 34.8983 72.7838 34.8983Z" fill="#EB6320"/>
<path d="M22.0317 27.4267C21.6087 27.4267 21.1858 27.0038 21.1858 26.5809C21.1858 26.1579 21.6087 25.735 22.0317 25.735C24.2873 25.735 25.979 23.9023 25.979 21.7876C25.979 19.532 24.1463 17.8403 22.0317 17.8403C19.776 17.8403 18.0843 19.673 18.0843 21.7876C18.0843 22.2106 17.6614 22.6335 17.2385 22.6335C16.8156 22.6335 16.3926 22.2106 16.3926 21.7876C16.3926 18.6861 18.9302 16.0076 22.1727 16.0076C25.4152 16.0076 27.9527 18.5452 27.9527 21.7876C27.8118 24.8891 25.2742 27.4267 22.0317 27.4267Z" fill="#EB6320"/>
<path d="M31.7597 27.4267C31.3368 27.4267 30.9138 27.0038 30.9138 26.5809C30.9138 26.1579 31.3368 25.735 31.7597 25.735C34.0153 25.735 35.7071 23.9023 35.7071 21.7876C35.7071 19.532 33.8744 17.8403 31.7597 17.8403C29.5041 17.8403 27.8124 19.673 27.8124 21.7876C27.8124 22.2106 27.3894 22.6335 26.9664 22.6335C26.5435 22.6335 26.1206 22.2106 26.1206 21.7876C26.1206 18.6861 28.6582 16.0076 31.9006 16.0076C35.1431 16.0076 37.6808 18.5452 37.6808 21.7876C37.5398 24.8891 34.8612 27.4267 31.7597 27.4267Z" fill="#EB6320"/>
<path d="M41.4868 27.4267C41.0638 27.4267 40.6409 27.0038 40.6409 26.5809C40.6409 26.1579 41.0638 25.735 41.4868 25.735C43.7424 25.735 45.4342 23.9023 45.4342 21.7876C45.4342 19.532 43.6014 17.8403 41.4868 17.8403C39.3721 17.8403 37.5394 19.673 37.5394 21.7876C37.5394 22.2106 37.1165 22.6335 36.6936 22.6335C36.2706 22.6335 35.8477 22.2106 35.8477 21.7876C35.8477 18.6861 38.3853 16.0076 41.6278 16.0076C44.8703 16.0076 47.4078 18.5452 47.4078 21.7876C47.1259 24.8891 44.5883 27.4267 41.4868 27.4267Z" fill="#EB6320"/>
<path d="M51.0732 27.4267C50.6502 27.4267 50.2273 27.0038 50.2273 26.5809C50.2273 26.1579 50.6502 25.735 51.0732 25.735C53.3288 25.735 55.0205 23.9023 55.0205 21.7876C55.0205 19.532 53.1878 17.8403 51.0732 17.8403C48.9585 17.8403 47.1257 19.673 47.1257 21.7876C47.1257 22.2106 46.7028 22.6335 46.2799 22.6335C45.857 22.6335 45.4341 22.2106 45.4341 21.7876C45.4341 18.6861 47.9716 16.0076 51.2141 16.0076C54.4566 16.0076 56.9942 18.5452 56.9942 21.7876C56.8532 24.8891 54.3157 27.4267 51.0732 27.4267Z" fill="#EB6320"/>
<path d="M60.8002 27.4267C60.3773 27.4267 59.9544 27.0038 59.9544 26.5809C59.9544 26.1579 60.3773 25.735 60.8002 25.735C63.0559 25.735 64.7476 23.9023 64.7476 21.7876C64.7476 19.532 62.9149 17.8403 60.8002 17.8403C58.5446 17.8403 56.8529 19.673 56.8529 21.7876C56.8529 22.2106 56.43 22.6335 56.007 22.6335C55.5841 22.6335 55.1611 22.2106 55.1611 21.7876C55.1611 18.6861 57.6988 16.0076 60.9413 16.0076C64.1837 16.0076 66.7213 18.5452 66.7213 21.7876C66.5803 24.8891 64.0427 27.4267 60.8002 27.4267Z" fill="#EB6320"/>
<path d="M72.7838 30.5284H8.35706C7.93413 30.5284 7.51123 30.1055 7.51123 29.6825C7.51123 29.2596 7.93413 28.8367 8.35706 28.8367H72.6428C73.0658 28.8367 73.4886 29.2596 73.4886 29.6825C73.6296 30.1055 73.2067 30.5284 72.7838 30.5284Z" fill="#EB6320"/>
<path d="M9.3439 18.1222C6.94728 18.1222 4.97363 16.1485 4.97363 13.7519C4.97363 11.3553 6.94728 9.38159 9.3439 9.38159C11.7405 9.38159 13.7143 11.3553 13.7143 13.7519C13.7143 16.1485 11.7405 18.1222 9.3439 18.1222ZM9.3439 11.0733C7.93412 11.0733 6.66538 12.2011 6.66538 13.7519C6.66538 15.3027 7.79315 16.4305 9.3439 16.4305C10.8947 16.4305 12.0225 15.3027 12.0225 13.7519C12.0225 12.2011 10.7537 11.0733 9.3439 11.0733Z" fill="#EB6320"/>
<path d="M65.0295 75.5H15.9694C12.7269 75.5 10.0483 72.8214 10.0483 69.579V34.0526C10.0483 33.6297 10.4713 33.2068 10.8943 33.2068H69.9638C70.3867 33.2068 70.8097 33.6297 70.8097 34.0526V69.579C70.9506 72.8214 68.272 75.5 65.0295 75.5ZM11.881 34.8985V69.579C11.881 71.8346 13.7138 73.6673 15.9694 73.6673H65.0295C67.2852 73.6673 69.1179 71.8346 69.1179 69.579V34.8985H11.881Z" fill="#EB6320"/>
<path d="M71.7972 12.906C68.4137 12.906 65.5942 10.0865 65.5942 6.70301C65.5942 3.31955 68.4137 0.5 71.7972 0.5C75.1807 0.5 78.0002 3.31955 78.0002 6.70301C78.0002 10.0865 75.1807 12.906 71.7972 12.906ZM71.7972 2.3327C69.4006 2.3327 67.4269 4.30639 67.4269 6.70301C67.4269 9.09963 69.4006 11.0733 71.7972 11.0733C74.1938 11.0733 76.1675 9.09963 76.1675 6.70301C76.1675 4.30639 74.1938 2.3327 71.7972 2.3327Z" fill="#EB6320"/>
<path d="M22.3138 52.3797C19.6352 52.3797 17.5205 50.265 17.5205 47.5864C17.5205 44.9079 19.6352 42.7932 22.3138 42.7932C24.9923 42.7932 27.107 44.9079 27.107 47.5864C27.107 48.8552 26.5431 49.9831 25.6973 50.9699C24.7104 51.8158 23.5826 52.3797 22.3138 52.3797ZM22.3138 44.6259C20.622 44.6259 19.3533 46.0357 19.3533 47.5864C19.3533 49.1372 20.763 50.547 22.3138 50.547C23.1596 50.547 23.8645 50.265 24.4284 49.7011C24.9923 49.1372 25.2743 48.4323 25.2743 47.5864C25.2743 45.8947 23.8645 44.6259 22.3138 44.6259Z" fill="#EB6320"/>
<path d="M33.8738 63.9397C31.1953 63.9397 29.0806 61.8251 29.0806 59.1465C29.0806 57.8777 29.6445 56.7499 30.4903 55.763C31.3362 54.9172 32.605 54.3533 33.8738 54.3533C35.1426 54.3533 36.2704 54.9172 37.2572 55.763C38.1031 56.6089 38.667 57.8777 38.667 59.1465C38.667 61.8251 36.5524 63.9397 33.8738 63.9397ZM33.8738 56.186C33.028 56.186 32.3231 56.4679 31.7592 57.0318C31.1953 57.5958 30.9133 58.3006 30.9133 59.1465C30.9133 60.8382 32.3231 62.107 33.8738 62.107C35.5656 62.107 36.8343 60.6973 36.8343 59.1465C36.8343 58.3006 36.5524 57.5958 35.9885 57.0318C35.4246 56.6089 34.7197 56.186 33.8738 56.186Z" fill="#EB6320"/>
<path d="M31.1952 57.3139C30.9132 57.3139 30.7723 57.1729 30.6313 57.0319L24.4283 50.8289C24.1463 50.5469 24.1463 49.983 24.4283 49.5601C24.7102 49.2781 25.2742 49.2781 25.6971 49.5601L31.9001 55.7631C32.182 56.0451 32.182 56.609 31.9001 57.0319C31.6181 57.3139 31.3361 57.3139 31.1952 57.3139Z" fill="#EB6320"/>
<path d="M47.1262 52.3797C45.8574 52.3797 44.7296 51.8158 43.7428 50.9699C42.8969 50.124 42.333 48.8552 42.333 47.5864C42.333 44.9079 44.4476 42.7932 47.1262 42.7932C49.8048 42.7932 51.9195 44.9079 51.9195 47.5864C51.9195 48.8552 51.3555 49.9831 50.5097 50.9699C49.5228 51.8158 48.395 52.3797 47.1262 52.3797ZM47.1262 44.6259C45.4345 44.6259 44.1657 46.0357 44.1657 47.5864C44.1657 48.4323 44.4476 49.1372 45.0115 49.7011C45.5754 50.265 46.2803 50.547 47.1262 50.547C47.9721 50.547 48.6769 50.265 49.2409 49.7011C49.8048 49.1372 50.0868 48.4323 50.0868 47.5864C50.0868 45.8947 48.6769 44.6259 47.1262 44.6259Z" fill="#EB6320"/>
<path d="M58.6858 63.9397C56.0072 63.9397 53.8926 61.8251 53.8926 59.1465C53.8926 57.8777 54.4565 56.7499 55.3024 55.763C56.1482 54.9172 57.417 54.3533 58.6858 54.3533C61.3643 54.3533 63.479 56.4679 63.479 59.1465C63.479 61.8251 61.3643 63.9397 58.6858 63.9397ZM58.6858 56.186C57.8399 56.186 57.135 56.4679 56.5711 57.0318C56.0072 57.5958 55.7253 58.3006 55.7253 59.1465C55.7253 60.8382 57.135 62.107 58.6858 62.107C60.3775 62.107 61.6463 60.6973 61.6463 59.1465C61.6463 57.5958 60.3775 56.186 58.6858 56.186Z" fill="#EB6320"/>
<path d="M56.0077 57.3139C55.7258 57.3139 55.5848 57.1729 55.4438 57.0319L49.2408 50.8289C48.9588 50.5469 48.9588 49.983 49.2408 49.5601C49.5227 49.2781 50.0867 49.2781 50.5096 49.5601L56.7126 55.7631C56.9946 56.0451 56.9946 56.609 56.7126 57.0319C56.4307 57.3139 56.1487 57.3139 56.0077 57.3139Z" fill="#EB6320"/>
<path d="M36.6934 57.314C36.4114 57.314 36.1295 57.1731 35.9885 57.0321C35.7066 56.6091 35.7065 56.0452 36.1295 55.7633L43.8832 49.5603C44.3061 49.2783 44.8701 49.2783 45.152 49.7013C45.434 50.1242 45.4339 50.6881 45.011 50.97L37.2573 57.1731C36.9753 57.314 36.8344 57.314 36.6934 57.314Z" fill="#EB6320"/>
<path d="M70.1049 68.451H11.0353C10.6124 68.451 10.1895 68.0281 10.1895 67.6052C10.1895 67.1822 10.6124 66.7593 11.0353 66.7593H70.1049C70.5278 66.7593 70.9507 67.1822 70.9507 67.6052C70.9507 68.0281 70.5278 68.451 70.1049 68.451Z" fill="#EB6320"/>
<path d="M70.1052 67.4644H11.0356V34.0527H70.1052V67.4644Z" fill="white"/>
<path d="M71.7966 1.34595C74.7571 1.34595 77.1538 3.74257 77.1538 6.70309C77.1538 9.66362 74.7571 12.0602 71.7966 12.0602C68.8361 12.0602 66.4395 9.66362 66.4395 6.70309C66.4395 3.74257 68.8361 1.34595 71.7966 1.34595Z" fill="white"/>
<path d="M9.34328 10.2273C11.317 10.2273 12.8677 11.778 12.8677 13.7517C12.8677 15.7254 11.317 17.2762 9.34328 17.2762C7.3696 17.2762 5.81885 15.7254 5.81885 13.7517C5.81885 11.778 7.3696 10.2273 9.34328 10.2273Z" fill="white"/>
<path d="M58.6856 55.3401C60.8003 55.3401 62.633 57.0318 62.633 59.2874C62.633 61.4021 60.9413 63.2348 58.6856 63.2348C56.571 63.2348 54.7383 61.5431 54.7383 59.2874C54.7383 58.1596 55.1612 57.3138 55.8661 56.6089C56.7119 55.763 57.6988 55.3401 58.6856 55.3401Z" fill="white"/>
<path d="M47.1263 43.78C49.241 43.78 51.0737 45.4718 51.0737 47.7274C51.0737 48.8552 50.6507 49.7011 49.9458 50.406C49.241 51.1109 48.2542 51.5338 47.2673 51.5338C46.2805 51.5338 45.2936 51.1109 44.5887 50.406C43.8838 49.7011 43.4609 48.7142 43.4609 47.7274C43.179 45.4718 44.8707 43.78 47.1263 43.78Z" fill="white"/>
<path d="M36.6932 56.4679C37.3981 57.1728 37.821 58.1596 37.821 59.1465C37.821 61.2611 36.1293 63.0938 33.8736 63.0938C31.759 63.0938 29.9263 61.4021 29.9263 59.1465C29.9263 58.0187 30.3492 57.1728 31.0541 56.4679C31.759 55.763 32.7457 55.3401 33.7326 55.3401C35.0014 55.3401 35.9883 55.763 36.6932 56.4679Z" fill="white"/>
<path d="M74.8981 19.9548C75.603 19.9548 76.167 20.5187 76.167 21.2236C76.167 21.9285 75.603 22.4924 74.8981 22.4924C74.1933 22.4924 73.6294 21.9285 73.6294 21.2236C73.6294 20.5187 74.1933 19.9548 74.8981 19.9548Z" fill="#EB6320"/>
<path d="M74.8981 41.1016C75.603 41.1016 76.167 41.6655 76.167 42.3704C76.167 43.0752 75.603 43.6392 74.8981 43.6392C74.1933 43.6392 73.6294 43.0752 73.6294 42.3704C73.6294 41.6655 74.1933 41.1016 74.8981 41.1016Z" fill="#EB6320"/>
<path d="M72.7836 29.6824V34.0527H70.1051H11.0355H8.35693V29.6824H72.7836Z" fill="white"/>
<path d="M66.7216 21.6467C70.1051 21.6467 72.7836 24.3253 72.7836 27.7088V29.6824H8.35693V27.7088C8.35693 24.3253 11.0356 21.6467 14.419 21.6467H66.7216Z" fill="white"/>
<path d="M70.1052 67.4644V69.579C70.1052 72.3986 67.8496 74.5132 65.171 74.5132H15.9699C13.1503 74.5132 11.0356 72.2576 11.0356 69.579V67.4644H70.1052Z" fill="white"/>
<path d="M59.1091 0.641113C59.814 0.641113 60.3779 1.20503 60.3779 1.90991C60.3779 2.6148 59.814 3.17871 59.1091 3.17871C58.4042 3.17871 57.8403 2.6148 57.8403 1.90991C57.8403 1.20503 58.4042 0.641113 59.1091 0.641113Z" fill="#EB6320"/>
<path d="M43.1784 7.68994C43.8833 7.68994 44.4472 8.25385 44.4472 8.95874C44.4472 9.66363 43.8833 10.2275 43.1784 10.2275C42.4735 10.2275 41.9097 9.66363 41.9097 8.95874C41.9097 8.25385 42.4735 7.68994 43.1784 7.68994Z" fill="#EB6320"/>
<path d="M22.3132 43.78C24.4279 43.78 26.2606 45.4718 26.2606 47.7274C26.2606 48.8552 25.8377 49.7011 25.1328 50.406C24.4279 51.1109 23.441 51.5338 22.4542 51.5338C20.3395 51.5338 18.5068 49.8421 18.5068 47.5864C18.5068 45.3308 20.0576 43.78 22.3132 43.78Z" fill="white"/>
<path d="M18.507 2.33276C19.2119 2.33276 19.7759 2.89668 19.7759 3.60156C19.7759 4.30645 19.2119 4.87036 18.507 4.87036C17.8021 4.87036 17.2383 4.30645 17.2383 3.60156C17.2383 2.89668 17.8021 2.33276 18.507 2.33276Z" fill="#EB6320"/>
<path d="M6.52143 59.1503C6.52302 58.4495 5.95625 57.8802 5.25551 57.8786C4.55478 57.877 3.98543 58.4438 3.98384 59.1445C3.98225 59.8452 4.54902 60.4146 5.24975 60.4162C5.95049 60.4178 6.51984 59.851 6.52143 59.1503Z" fill="#EB6320"/>
<path d="M3.00336 35.3273C3.00495 34.6265 2.43818 34.0572 1.73744 34.0556C1.03671 34.0541 0.467359 34.6208 0.46577 35.3215C0.46418 36.0222 1.03095 36.5916 1.73169 36.5932C2.43242 36.5948 3.00177 36.028 3.00336 35.3273Z" fill="#EB6320"/>
<path d="M72.7838 34.8983H70.1052C69.6823 34.8983 69.2593 34.4753 69.2593 34.0524C69.2593 33.6295 69.6823 33.2065 70.1052 33.2065H71.9379V27.7084C71.9379 24.8889 69.6822 22.6332 66.8627 22.6332H14.4192C11.5996 22.6332 9.34392 24.8889 9.34392 27.7084V33.2065H11.0357C11.4586 33.2065 11.8815 33.6295 11.8815 34.0524C11.8815 34.4753 11.4586 34.8983 11.0357 34.8983H8.35706C7.93413 34.8983 7.51123 34.4753 7.51123 34.0524V27.7084C7.51123 23.902 10.6128 20.8005 14.4192 20.8005H66.7218C70.5281 20.8005 73.6297 23.902 73.6297 27.7084V34.0524C73.6297 34.4753 73.2067 34.8983 72.7838 34.8983Z" fill="#EB6320"/>
<path d="M22.0317 27.4267C21.6087 27.4267 21.1858 27.0038 21.1858 26.5809C21.1858 26.1579 21.6087 25.735 22.0317 25.735C24.2873 25.735 25.979 23.9023 25.979 21.7876C25.979 19.532 24.1463 17.8403 22.0317 17.8403C19.776 17.8403 18.0843 19.673 18.0843 21.7876C18.0843 22.2106 17.6614 22.6335 17.2385 22.6335C16.8156 22.6335 16.3926 22.2106 16.3926 21.7876C16.3926 18.6861 18.9302 16.0076 22.1727 16.0076C25.4152 16.0076 27.9527 18.5452 27.9527 21.7876C27.8118 24.8891 25.2742 27.4267 22.0317 27.4267Z" fill="#EB6320"/>
<path d="M31.7597 27.4267C31.3368 27.4267 30.9138 27.0038 30.9138 26.5809C30.9138 26.1579 31.3368 25.735 31.7597 25.735C34.0153 25.735 35.7071 23.9023 35.7071 21.7876C35.7071 19.532 33.8744 17.8403 31.7597 17.8403C29.5041 17.8403 27.8124 19.673 27.8124 21.7876C27.8124 22.2106 27.3894 22.6335 26.9664 22.6335C26.5435 22.6335 26.1206 22.2106 26.1206 21.7876C26.1206 18.6861 28.6582 16.0076 31.9006 16.0076C35.1431 16.0076 37.6808 18.5452 37.6808 21.7876C37.5398 24.8891 34.8612 27.4267 31.7597 27.4267Z" fill="#EB6320"/>
<path d="M41.4868 27.4267C41.0638 27.4267 40.6409 27.0038 40.6409 26.5809C40.6409 26.1579 41.0638 25.735 41.4868 25.735C43.7424 25.735 45.4342 23.9023 45.4342 21.7876C45.4342 19.532 43.6014 17.8403 41.4868 17.8403C39.3721 17.8403 37.5394 19.673 37.5394 21.7876C37.5394 22.2106 37.1165 22.6335 36.6936 22.6335C36.2706 22.6335 35.8477 22.2106 35.8477 21.7876C35.8477 18.6861 38.3853 16.0076 41.6278 16.0076C44.8703 16.0076 47.4078 18.5452 47.4078 21.7876C47.1259 24.8891 44.5883 27.4267 41.4868 27.4267Z" fill="#EB6320"/>
<path d="M51.0732 27.4267C50.6502 27.4267 50.2273 27.0038 50.2273 26.5809C50.2273 26.1579 50.6502 25.735 51.0732 25.735C53.3288 25.735 55.0205 23.9023 55.0205 21.7876C55.0205 19.532 53.1878 17.8403 51.0732 17.8403C48.9585 17.8403 47.1257 19.673 47.1257 21.7876C47.1257 22.2106 46.7028 22.6335 46.2799 22.6335C45.857 22.6335 45.4341 22.2106 45.4341 21.7876C45.4341 18.6861 47.9716 16.0076 51.2141 16.0076C54.4566 16.0076 56.9942 18.5452 56.9942 21.7876C56.8532 24.8891 54.3157 27.4267 51.0732 27.4267Z" fill="#EB6320"/>
<path d="M60.8002 27.4267C60.3773 27.4267 59.9544 27.0038 59.9544 26.5809C59.9544 26.1579 60.3773 25.735 60.8002 25.735C63.0559 25.735 64.7476 23.9023 64.7476 21.7876C64.7476 19.532 62.9149 17.8403 60.8002 17.8403C58.5446 17.8403 56.8529 19.673 56.8529 21.7876C56.8529 22.2106 56.43 22.6335 56.007 22.6335C55.5841 22.6335 55.1611 22.2106 55.1611 21.7876C55.1611 18.6861 57.6988 16.0076 60.9413 16.0076C64.1837 16.0076 66.7213 18.5452 66.7213 21.7876C66.5803 24.8891 64.0427 27.4267 60.8002 27.4267Z" fill="#EB6320"/>
<path d="M72.7838 30.5284H8.35706C7.93413 30.5284 7.51123 30.1055 7.51123 29.6825C7.51123 29.2596 7.93413 28.8367 8.35706 28.8367H72.6428C73.0658 28.8367 73.4886 29.2596 73.4886 29.6825C73.6296 30.1055 73.2067 30.5284 72.7838 30.5284Z" fill="#EB6320"/>
<path d="M9.3439 18.1222C6.94728 18.1222 4.97363 16.1485 4.97363 13.7519C4.97363 11.3553 6.94728 9.38159 9.3439 9.38159C11.7405 9.38159 13.7143 11.3553 13.7143 13.7519C13.7143 16.1485 11.7405 18.1222 9.3439 18.1222ZM9.3439 11.0733C7.93412 11.0733 6.66538 12.2011 6.66538 13.7519C6.66538 15.3027 7.79315 16.4305 9.3439 16.4305C10.8947 16.4305 12.0225 15.3027 12.0225 13.7519C12.0225 12.2011 10.7537 11.0733 9.3439 11.0733Z" fill="#EB6320"/>
<path d="M65.0295 75.5H15.9694C12.7269 75.5 10.0483 72.8214 10.0483 69.579V34.0526C10.0483 33.6297 10.4713 33.2068 10.8943 33.2068H69.9638C70.3867 33.2068 70.8097 33.6297 70.8097 34.0526V69.579C70.9506 72.8214 68.272 75.5 65.0295 75.5ZM11.881 34.8985V69.579C11.881 71.8346 13.7138 73.6673 15.9694 73.6673H65.0295C67.2852 73.6673 69.1179 71.8346 69.1179 69.579V34.8985H11.881Z" fill="#EB6320"/>
<path d="M71.7972 12.906C68.4137 12.906 65.5942 10.0865 65.5942 6.70301C65.5942 3.31955 68.4137 0.5 71.7972 0.5C75.1807 0.5 78.0002 3.31955 78.0002 6.70301C78.0002 10.0865 75.1807 12.906 71.7972 12.906ZM71.7972 2.3327C69.4006 2.3327 67.4269 4.30639 67.4269 6.70301C67.4269 9.09963 69.4006 11.0733 71.7972 11.0733C74.1938 11.0733 76.1675 9.09963 76.1675 6.70301C76.1675 4.30639 74.1938 2.3327 71.7972 2.3327Z" fill="#EB6320"/>
<path d="M22.3138 52.3797C19.6352 52.3797 17.5205 50.265 17.5205 47.5864C17.5205 44.9079 19.6352 42.7932 22.3138 42.7932C24.9923 42.7932 27.107 44.9079 27.107 47.5864C27.107 48.8552 26.5431 49.9831 25.6973 50.9699C24.7104 51.8158 23.5826 52.3797 22.3138 52.3797ZM22.3138 44.6259C20.622 44.6259 19.3533 46.0357 19.3533 47.5864C19.3533 49.1372 20.763 50.547 22.3138 50.547C23.1596 50.547 23.8645 50.265 24.4284 49.7011C24.9923 49.1372 25.2743 48.4323 25.2743 47.5864C25.2743 45.8947 23.8645 44.6259 22.3138 44.6259Z" fill="#EB6320"/>
<path d="M33.8738 63.9397C31.1953 63.9397 29.0806 61.8251 29.0806 59.1465C29.0806 57.8777 29.6445 56.7499 30.4903 55.763C31.3362 54.9172 32.605 54.3533 33.8738 54.3533C35.1426 54.3533 36.2704 54.9172 37.2572 55.763C38.1031 56.6089 38.667 57.8777 38.667 59.1465C38.667 61.8251 36.5524 63.9397 33.8738 63.9397ZM33.8738 56.186C33.028 56.186 32.3231 56.4679 31.7592 57.0318C31.1953 57.5958 30.9133 58.3006 30.9133 59.1465C30.9133 60.8382 32.3231 62.107 33.8738 62.107C35.5656 62.107 36.8343 60.6973 36.8343 59.1465C36.8343 58.3006 36.5524 57.5958 35.9885 57.0318C35.4246 56.6089 34.7197 56.186 33.8738 56.186Z" fill="#EB6320"/>
<path d="M31.1952 57.3139C30.9132 57.3139 30.7723 57.1729 30.6313 57.0319L24.4283 50.8289C24.1463 50.5469 24.1463 49.983 24.4283 49.5601C24.7102 49.2781 25.2742 49.2781 25.6971 49.5601L31.9001 55.7631C32.182 56.0451 32.182 56.609 31.9001 57.0319C31.6181 57.3139 31.3361 57.3139 31.1952 57.3139Z" fill="#EB6320"/>
<path d="M47.1262 52.3797C45.8574 52.3797 44.7296 51.8158 43.7428 50.9699C42.8969 50.124 42.333 48.8552 42.333 47.5864C42.333 44.9079 44.4476 42.7932 47.1262 42.7932C49.8048 42.7932 51.9195 44.9079 51.9195 47.5864C51.9195 48.8552 51.3555 49.9831 50.5097 50.9699C49.5228 51.8158 48.395 52.3797 47.1262 52.3797ZM47.1262 44.6259C45.4345 44.6259 44.1657 46.0357 44.1657 47.5864C44.1657 48.4323 44.4476 49.1372 45.0115 49.7011C45.5754 50.265 46.2803 50.547 47.1262 50.547C47.9721 50.547 48.6769 50.265 49.2409 49.7011C49.8048 49.1372 50.0868 48.4323 50.0868 47.5864C50.0868 45.8947 48.6769 44.6259 47.1262 44.6259Z" fill="#EB6320"/>
<path d="M58.6858 63.9397C56.0072 63.9397 53.8926 61.8251 53.8926 59.1465C53.8926 57.8777 54.4565 56.7499 55.3024 55.763C56.1482 54.9172 57.417 54.3533 58.6858 54.3533C61.3643 54.3533 63.479 56.4679 63.479 59.1465C63.479 61.8251 61.3643 63.9397 58.6858 63.9397ZM58.6858 56.186C57.8399 56.186 57.135 56.4679 56.5711 57.0318C56.0072 57.5958 55.7253 58.3006 55.7253 59.1465C55.7253 60.8382 57.135 62.107 58.6858 62.107C60.3775 62.107 61.6463 60.6973 61.6463 59.1465C61.6463 57.5958 60.3775 56.186 58.6858 56.186Z" fill="#EB6320"/>
<path d="M56.0077 57.3139C55.7258 57.3139 55.5848 57.1729 55.4438 57.0319L49.2408 50.8289C48.9588 50.5469 48.9588 49.983 49.2408 49.5601C49.5227 49.2781 50.0867 49.2781 50.5096 49.5601L56.7126 55.7631C56.9946 56.0451 56.9946 56.609 56.7126 57.0319C56.4307 57.3139 56.1487 57.3139 56.0077 57.3139Z" fill="#EB6320"/>
<path d="M36.6934 57.314C36.4114 57.314 36.1295 57.1731 35.9885 57.0321C35.7066 56.6091 35.7065 56.0452 36.1295 55.7633L43.8832 49.5603C44.3061 49.2783 44.8701 49.2783 45.152 49.7013C45.434 50.1242 45.4339 50.6881 45.011 50.97L37.2573 57.1731C36.9753 57.314 36.8344 57.314 36.6934 57.314Z" fill="#EB6320"/>
<path d="M70.1049 68.451H11.0353C10.6124 68.451 10.1895 68.0281 10.1895 67.6052C10.1895 67.1822 10.6124 66.7593 11.0353 66.7593H70.1049C70.5278 66.7593 70.9507 67.1822 70.9507 67.6052C70.9507 68.0281 70.5278 68.451 70.1049 68.451Z" fill="#EB6320"/>
</svg>
