<svg width="73" height="75" viewBox="0 0 73 75" fill="none" xmlns="http://www.w3.org/2000/svg">
<path d="M65.7834 59.665C67.5875 59.665 69.0051 61.0826 69.0051 62.8867C69.0051 64.6908 67.5875 66.1083 65.7834 66.1083C63.9793 66.1083 62.5618 64.6908 62.5618 62.8867C62.5618 61.0826 63.9793 59.665 65.7834 59.665Z" fill="white"/>
<path d="M5.3454 3.35059C7.53612 3.35059 9.34029 5.15472 9.34029 7.34544C9.34029 9.53616 7.53612 11.3403 5.3454 11.3403C3.15468 11.3403 1.35059 9.53616 1.35059 7.34544C1.35059 5.15472 3.15468 3.35059 5.3454 3.35059Z" fill="white"/>
<path d="M39.1082 43.1702C44.1339 43.1702 48.902 44.33 53.1546 46.5207C50.4484 55.799 45.1649 62.1135 39.1082 62.1135V43.1702Z" fill="white"/>
<path d="M39.1082 31.4431H55.2164C55.2164 36.8555 54.4432 42.0101 53.1546 46.5204C48.902 44.3297 44.1339 43.1699 39.1082 43.1699V31.4431Z" fill="white"/>
<path d="M39.1082 31.4431V43.1699C36.2732 43.1699 33.567 43.5565 30.9897 44.2009C29.1856 41.4947 26.6083 39.304 23.5155 38.1442C23.2578 35.9534 23.1289 33.7627 23.1289 31.4431H39.1082Z" fill="white"/>
<path d="M55.2166 31.4431H69.7785C69.7785 39.6905 66.5568 47.1648 61.2733 52.5772C58.9537 50.1287 56.1187 48.0668 53.0259 46.3916C54.4434 42.0101 55.2166 36.9844 55.2166 31.4431Z" fill="white"/>
<path d="M71.8402 14.6907C72.4846 14.6907 73 15.2062 73 15.8505C73 16.4948 72.4846 17.0103 71.8402 17.0103C71.1959 17.0103 70.6804 16.4948 70.6804 15.8505C70.6804 15.2062 71.1959 14.6907 71.8402 14.6907Z" fill="#EB6320"/>
<path d="M69.7784 31.4431H55.2166C55.2166 26.0307 54.4434 20.8761 53.1548 16.3658C56.2476 14.8194 58.9537 12.7575 61.4022 10.1802C66.5568 15.7214 69.7784 23.1956 69.7784 31.4431Z" fill="white"/>
<path d="M62.1752 1.80396C62.8195 1.80396 63.335 2.31945 63.335 2.96378C63.335 3.60811 62.8195 4.12357 62.1752 4.12357C61.5309 4.12357 61.0154 3.60811 61.0154 2.96378C61.0154 2.31945 61.5309 1.80396 62.1752 1.80396Z" fill="#EB6320"/>
<path d="M39.1082 0.773438C47.871 0.773438 55.7319 4.38168 61.2731 10.3095C58.9535 12.758 56.1184 14.8198 53.0257 16.4951C50.3195 7.08788 45.1649 0.773438 39.1082 0.773438Z" fill="white"/>
<path d="M61.2731 52.5775C55.7319 58.3764 47.871 62.1135 39.1082 62.1135C45.1649 62.1135 50.3195 55.7991 53.1546 46.5208C56.2474 48.0671 58.9535 50.129 61.2731 52.5775Z" fill="white"/>
<path d="M55.6033 67.0103C56.2477 67.0103 56.7632 67.5257 56.7632 68.17C56.7632 68.8144 56.2477 69.3299 55.6033 69.3299C54.959 69.3299 54.4436 68.8144 54.4436 68.17C54.4436 67.5257 54.959 67.0103 55.6033 67.0103Z" fill="#EB6320"/>
<path d="M55.2164 31.4433H39.1082V19.7165C44.1339 19.7165 48.902 18.5567 53.1546 16.366C54.4432 20.8763 55.2164 26.0309 55.2164 31.4433Z" fill="white"/>
<path d="M53.1546 16.3662C48.902 18.5569 44.1339 19.7167 39.1082 19.7167V0.773438C45.1649 0.773438 50.3195 7.08788 53.1546 16.3662Z" fill="white"/>
<path d="M39.1084 43.1702V62.1135C36.1445 62.1135 33.3095 61.7269 30.6033 60.9537C32.2785 58.6341 33.3094 56.0568 33.3094 52.5774C33.3094 49.4846 32.4074 46.6496 30.861 44.2011C33.5672 43.5568 36.2733 43.1702 39.1084 43.1702Z" fill="white"/>
<path d="M39.1082 19.7165V31.4433H23.1289C23.1289 26.0309 23.9021 20.8763 25.1907 16.366C29.3144 18.5567 34.0825 19.7165 39.1082 19.7165Z" fill="white"/>
<path d="M39.1084 0.773438V19.7167C34.0826 19.7167 29.3146 18.5569 25.062 16.3662C27.8971 7.08788 33.1805 0.773438 39.1084 0.773438Z" fill="white"/>
<path d="M35.629 65.4639C36.2733 65.4639 36.7888 65.9793 36.7888 66.6237C36.7888 67.268 36.2733 67.7834 35.629 67.7834C34.9847 67.7834 34.4692 67.268 34.4692 66.6237C34.4692 65.9793 34.9847 65.4639 35.629 65.4639Z" fill="#EB6320"/>
<path d="M33.4383 52.5774C33.4383 62.5001 24.16 65.7218 17.9744 74.2269C11.7888 65.8506 2.5105 62.629 2.5105 52.5774C2.5105 44.0723 9.46926 37.1135 17.9744 37.1135C26.4796 37.1135 33.4383 44.0723 33.4383 52.5774Z" fill="white"/>
<path d="M39.1082 0.773438C33.0515 0.773438 27.897 7.08788 25.0619 16.3662C21.9691 14.8198 19.2629 12.758 16.8145 10.3095C22.4846 4.38168 30.3454 0.773438 39.1082 0.773438Z" fill="white"/>
<path d="M17.9745 41.3662C24.1601 41.3662 29.1858 46.392 29.1858 52.5776C29.1858 58.7631 24.1601 63.7889 17.9745 63.7889C11.789 63.7889 6.76318 58.7631 6.76318 52.5776C6.76318 46.392 11.789 41.3662 17.9745 41.3662Z" fill="white"/>
<path d="M17.9746 44.5876C22.356 44.5876 25.9642 48.1959 25.9642 52.5774C25.9642 56.9588 22.356 60.567 17.9746 60.567C13.5931 60.567 9.98486 56.9588 9.98486 52.5774C9.98486 48.1959 13.5931 44.5876 17.9746 44.5876Z" fill="white"/>
<path d="M23.1291 31.4433C23.1291 33.7629 23.2579 35.9536 23.5156 38.1443C21.8404 37.5 20.0362 37.1134 18.1033 37.1134C15.0105 37.1134 12.0466 38.0155 9.72696 39.5619C8.95377 36.9845 8.56714 34.1495 8.56714 31.3145L23.1291 31.4433Z" fill="white"/>
<path d="M25.1908 16.366C23.9021 20.8764 23.129 25.9021 23.129 31.4433H8.43823C8.43823 23.1959 11.6598 15.7217 16.9434 10.3093C19.2629 12.7578 22.098 14.8197 25.1908 16.366Z" fill="white"/>
<path d="M21.3248 53.2216C21.4536 53.4794 21.4536 53.8659 21.4536 54.2525C21.4536 54.768 21.3248 55.1546 21.1959 55.4123C21.0671 55.7989 20.8093 56.0567 20.5516 56.1855C20.2939 56.4433 19.9072 56.5721 19.6495 56.701C19.2629 56.8298 18.8763 56.8298 18.4897 56.8298V58.2474H17.5876V56.8298C17.0722 56.8298 16.4278 56.701 15.9124 56.4433C15.3969 56.3144 14.8814 56.0567 14.366 55.6701L15.268 53.8659C15.268 53.8659 15.3969 53.9948 15.5258 54.1237C15.6547 54.2525 15.9124 54.3814 16.0413 54.3814C16.299 54.5103 16.5567 54.6391 16.8145 54.6391C17.0722 54.768 17.3299 54.768 17.7165 54.8969V53.2216L17.0722 53.0927C16.6856 52.9639 16.299 52.835 16.0413 52.7061C15.7836 52.5773 15.5258 52.4484 15.268 52.1907C15.0103 52.0618 14.8815 51.8041 14.8815 51.5463V50.902C14.8815 50.5154 15.0103 50.1288 15.1392 49.7422C15.2681 49.3556 15.5258 49.0979 15.7835 48.8401C16.0413 48.5824 16.299 48.4536 16.6856 48.3247C17.0722 48.1958 17.4588 48.067 17.8454 48.067V46.7783H18.7474V48.067C19.2629 48.067 19.7784 48.1958 20.2938 48.4536C20.8093 48.5824 21.1959 48.8402 21.5825 49.0979L20.6804 50.7731C20.6804 50.7731 20.5515 50.6443 20.4227 50.6443C20.2938 50.6443 20.165 50.5154 19.9073 50.3866C19.7784 50.2577 19.5207 50.2577 19.2629 50.1288C19.0052 49.9999 18.7475 50 18.6186 50V51.6752H18.7474C19.134 51.8041 19.5207 51.9329 19.9073 52.0618C20.2939 52.1907 20.5515 52.3196 20.8093 52.5773C21.067 52.7062 21.1959 52.9639 21.3248 53.2216ZM18.3609 55.1546C19.0052 55.1546 19.2629 54.8969 19.2629 54.5103C19.2629 54.2525 19.1341 54.1236 19.0052 53.9948C18.8763 53.8659 18.6186 53.7371 18.3609 53.6082V55.1546ZM17.8454 51.4175V49.8711C17.3299 49.8711 16.9433 50.1288 16.9433 50.6443C16.9433 50.902 17.0722 51.0309 17.201 51.1598C17.3299 51.1598 17.4588 51.2886 17.8454 51.4175Z" fill="#EB6320"/>
<path d="M7.40738 68.6855C8.05171 68.6855 8.56713 69.201 8.56713 69.8453C8.56713 70.4897 8.05171 71.0051 7.40738 71.0051C6.76305 71.0051 6.24756 70.4897 6.24756 69.8453C6.24756 69.201 6.76305 68.6855 7.40738 68.6855Z" fill="#EB6320"/>
<path d="M4.1857 17.1392C4.83003 17.1392 5.34545 17.6546 5.34545 18.2989C5.34545 18.9433 4.83003 19.4587 4.1857 19.4587C3.54137 19.4587 3.02588 18.9433 3.02588 18.2989C3.02588 17.6546 3.54137 17.1392 4.1857 17.1392Z" fill="#EB6320"/>
<path d="M39.1083 20.6185C34.0825 20.6185 29.1856 19.4587 24.8042 17.1391C21.7114 15.5927 18.8764 13.402 16.4279 10.8247C16.1702 10.5669 16.1702 10.0515 16.4279 9.66489C16.6856 9.40716 17.2011 9.40716 17.5877 9.66489C19.9073 12.1133 22.6135 14.0463 25.5774 15.5927C29.8299 17.7835 34.4692 18.8144 39.2372 18.8144C44.0052 18.8144 48.6444 17.6546 52.897 15.5927C55.8609 14.0463 58.5671 12.1133 60.8867 9.66489C61.1444 9.40716 61.6598 9.27829 62.0464 9.66489C62.3042 9.92262 62.433 10.4381 62.0464 10.8247C59.598 13.402 56.7629 15.4639 53.6701 17.1391C49.031 19.4587 44.1341 20.6185 39.1083 20.6185Z" fill="#EB6320"/>
<path d="M61.273 53.4792C61.0153 53.4792 60.8864 53.3504 60.6287 53.2215C58.3091 50.773 55.6029 48.84 52.639 47.2937C48.3864 45.1029 43.7473 44.072 38.9793 44.072C36.2731 44.072 33.5668 44.4586 31.1184 45.1029C30.7318 45.2318 30.2163 44.9741 30.0875 44.5875C29.9586 44.2009 30.2164 43.6854 30.603 43.5566C33.3092 42.7834 36.1442 42.3967 38.9793 42.3967C44.005 42.3967 48.9019 43.5565 53.2833 45.8761C56.3761 47.4225 59.2112 49.6132 61.6596 52.1905C61.9174 52.4483 61.9174 52.9637 61.6596 53.3503C61.6596 53.3503 61.5308 53.4792 61.273 53.4792Z" fill="#EB6320"/>
<path d="M69.7784 32.2165H8.4382C8.05161 32.2165 7.66504 31.8299 7.66504 31.4433C7.66504 31.0567 8.05161 30.6702 8.4382 30.6702H69.7784C70.165 30.6702 70.5516 31.0567 70.5516 31.4433C70.6805 31.9588 70.2938 32.2165 69.7784 32.2165Z" fill="#EB6320"/>
<path d="M39.1084 62.8866C38.7218 62.8866 38.3352 62.5 38.3352 62.1134V0.773204C38.3352 0.386606 38.7218 0 39.1084 0C39.495 0 39.8816 0.386606 39.8816 0.773204V62.1134C39.8816 62.6289 39.6238 62.8866 39.1084 62.8866Z" fill="#EB6320"/>
<path d="M17.9744 61.3402C13.0775 61.3402 9.21143 57.3454 9.21143 52.5774C9.21143 47.8093 13.2063 43.8145 17.9744 43.8145C22.7424 43.8145 26.7372 47.8093 26.7372 52.5774C26.7372 57.3454 22.8713 61.3402 17.9744 61.3402ZM17.9744 45.4897C13.9795 45.4897 10.7578 48.7114 10.7578 52.7062C10.7578 56.701 13.9795 59.9227 17.9744 59.9227C21.9692 59.9227 25.1908 56.701 25.1908 52.7062C25.1908 48.7114 21.9692 45.4897 17.9744 45.4897Z" fill="#EB6320"/>
<path d="M17.9743 64.5618C11.4022 64.5618 5.98975 59.1495 5.98975 52.5773C5.98975 46.0052 11.4022 40.5928 17.9743 40.5928C24.5465 40.5928 29.9589 46.0052 29.9589 52.5773C29.9589 59.1495 24.5465 64.5618 17.9743 64.5618ZM17.9743 42.2681C12.3042 42.2681 7.53615 46.9072 7.53615 52.7062C7.53615 58.5051 12.1754 63.1443 17.9743 63.1443C23.7733 63.1443 28.4125 58.5051 28.4125 52.7062C28.4125 46.9072 23.7733 42.2681 17.9743 42.2681Z" fill="#EB6320"/>
<path d="M39.1083 62.8867C36.1444 62.8867 33.1804 62.5001 30.4742 61.7269C30.0876 61.598 29.83 61.2114 29.9588 60.696C30.0877 60.3094 30.4743 60.0516 30.9897 60.1805C33.6959 60.9537 36.4021 61.3403 39.2372 61.3403C39.6238 61.3403 40.0103 61.7269 40.0103 62.1135C39.8815 62.6289 39.6237 62.8867 39.1083 62.8867Z" fill="#EB6320"/>
<path d="M39.1084 62.8866C38.7218 62.8866 38.3352 62.5 38.3352 62.1134C38.3352 61.7268 38.7218 61.3402 39.1084 61.3402C44.5207 61.3402 49.5465 55.5412 52.3815 46.2629C53.6702 41.7526 54.4434 36.5979 54.4434 31.4433C54.4434 26.2886 53.7991 21.134 52.3815 16.6237C49.6754 7.34535 44.5207 1.54641 39.1084 1.54641C38.7218 1.54641 38.3352 1.1598 38.3352 0.773204C38.3352 0.386606 38.7218 0 39.1084 0C43.4898 0 47.7424 0.902062 51.7372 2.57732C55.6032 4.25258 58.9537 6.70103 61.9177 9.66495C67.5878 15.5928 70.6805 23.3247 70.6805 31.4433C70.6805 39.5618 67.5878 47.2938 61.9177 53.2217C58.9537 56.3144 55.6032 58.634 51.7372 60.3093C47.7424 62.1134 43.4898 62.8866 39.1084 62.8866ZM45.5517 2.31961C46.4537 2.96394 47.227 3.73712 48.0002 4.63918C50.4486 7.47423 52.5104 11.4691 53.928 16.2371C55.3455 20.8763 55.9899 26.1598 55.9899 31.5722C55.9899 36.9845 55.2166 42.268 53.928 46.9072C52.5104 51.6752 50.4486 55.6701 48.0002 58.5051C47.227 59.4072 46.4537 60.1804 45.5517 60.8247C51.3506 59.5361 56.6341 56.701 60.7578 52.1907C66.0413 46.6495 69.0053 39.3041 69.0053 31.5722C69.0053 23.8402 66.0413 16.4948 60.7578 10.9536C56.5053 6.4433 51.2218 3.4794 45.5517 2.31961Z" fill="#EB6320"/>
<path d="M9.59803 40.4639C9.21143 40.4639 8.95365 40.2062 8.82479 39.8196C8.05159 37.1134 7.66504 34.2783 7.66504 31.4433C7.66504 23.3247 10.7578 15.5928 16.4279 9.66495C19.3918 6.57216 22.7423 4.25258 26.6083 2.57732C30.6031 0.902062 34.8558 0 39.2372 0C39.6238 0 40.0104 0.386606 40.0104 0.773204C40.0104 1.1598 39.6238 1.54641 39.2372 1.54641C33.8248 1.54641 28.799 7.34535 25.9639 16.6237C24.6753 21.134 23.9021 26.2886 23.9021 31.4433C23.9021 33.634 24.031 35.9536 24.2887 38.0155C24.2887 38.4021 24.031 38.9175 23.6444 38.9175C23.2578 38.9175 22.7423 38.6598 22.7423 38.2732C22.4846 36.0825 22.3557 33.7629 22.3557 31.4433C22.3557 26.0309 23.129 20.7474 24.4176 16.1082C25.8351 11.3402 27.897 7.34536 30.3454 4.51031C31.1186 3.60825 31.8918 2.83507 32.7939 2.19074C26.9949 3.4794 21.7114 6.31442 17.5877 10.8247C12.3042 16.366 9.34028 23.7113 9.34028 31.4433C9.34028 34.1495 9.72686 36.8557 10.3712 39.433C10.5001 39.8196 10.2423 40.335 9.8557 40.4639H9.59803Z" fill="#EB6320"/>
<path d="M17.9742 74.9999C17.7165 74.9999 17.4588 74.871 17.3299 74.6133C15.268 71.7782 12.8195 69.5875 10.4999 67.3968C5.98962 63.2731 1.73706 59.4071 1.73706 52.5772C1.73706 47.036 4.44326 42.0102 9.08244 38.9174C11.6598 37.2421 14.7526 36.3401 17.9742 36.3401C19.9072 36.3401 21.8402 36.7267 23.7732 37.371C26.9948 38.5308 29.8299 40.8504 31.634 43.8143C33.3092 46.3916 34.2113 49.4844 34.2113 52.5772C34.2113 55.67 33.3093 58.6339 31.2474 61.3401C29.701 63.5308 27.6391 65.3349 25.4484 67.3968C23.1288 69.5875 20.6804 71.7782 18.6185 74.6133C18.4897 74.871 18.232 74.9999 17.9742 74.9999ZM17.9742 38.0153C15.1392 38.0153 12.3041 38.7885 9.98451 40.3349C5.8608 43.0411 3.28347 47.6803 3.28347 52.5772C3.28347 58.7628 7.02056 62.2421 11.402 66.237C13.5927 68.2988 15.7835 70.2318 17.8453 72.8091C19.9072 70.2318 22.0979 68.17 24.2886 66.237C26.3505 64.304 28.4123 62.4999 29.8298 60.438C31.6339 57.9895 32.4071 55.5411 32.4071 52.5772C32.4071 49.6133 31.634 47.036 30.0876 44.7164C28.4123 42.1391 25.835 40.0772 22.9999 38.9174C21.5824 38.2731 19.7783 38.0153 17.9742 38.0153Z" fill="#EB6320"/>
<path d="M5.34538 12.2421C2.63919 12.2421 0.448486 10.0514 0.448486 7.34517C0.448486 4.63899 2.63919 2.44824 5.34538 2.44824C8.05156 2.44824 10.2423 4.63899 10.2423 7.34517C10.2423 10.0514 8.05156 12.2421 5.34538 12.2421ZM5.34538 4.12352C3.54125 4.12352 2.12373 5.54105 2.12373 7.34517C2.12373 9.1493 3.54125 10.5668 5.34538 10.5668C7.1495 10.5668 8.56703 9.1493 8.56703 7.34517C8.56703 5.54105 7.1495 4.12352 5.34538 4.12352Z" fill="#EB6320"/>
<path d="M65.7836 67.0104C63.5929 67.0104 61.7888 65.2063 61.7888 63.0156C61.7888 60.8248 63.5929 59.0208 65.7836 59.0208C67.9744 59.0208 69.7784 60.8248 69.7784 63.0156C69.7784 65.2063 67.9744 67.0104 65.7836 67.0104ZM65.7836 60.5671C64.495 60.5671 63.3351 61.598 63.3351 63.0156C63.3351 64.4331 64.3661 65.464 65.7836 65.464C67.2012 65.464 68.2321 64.4331 68.2321 63.0156C68.2321 61.598 67.0723 60.5671 65.7836 60.5671Z" fill="#EB6320"/>
<path d="M65.7834 59.665C67.5875 59.665 69.0051 61.0826 69.0051 62.8867C69.0051 64.6908 67.5875 66.1083 65.7834 66.1083C63.9793 66.1083 62.5618 64.6908 62.5618 62.8867C62.5618 61.0826 63.9793 59.665 65.7834 59.665Z" fill="white"/>
<path d="M5.3454 3.35059C7.53612 3.35059 9.34029 5.15472 9.34029 7.34544C9.34029 9.53616 7.53612 11.3403 5.3454 11.3403C3.15468 11.3403 1.35059 9.53616 1.35059 7.34544C1.35059 5.15472 3.15468 3.35059 5.3454 3.35059Z" fill="white"/>
<path d="M39.1082 43.1702C44.1339 43.1702 48.902 44.33 53.1546 46.5207C50.4484 55.799 45.1649 62.1135 39.1082 62.1135V43.1702Z" fill="white"/>
<path d="M39.1082 31.4431H55.2164C55.2164 36.8555 54.4432 42.0101 53.1546 46.5204C48.902 44.3297 44.1339 43.1699 39.1082 43.1699V31.4431Z" fill="white"/>
<path d="M39.1082 31.4431V43.1699C36.2732 43.1699 33.567 43.5565 30.9897 44.2009C29.1856 41.4947 26.6083 39.304 23.5155 38.1442C23.2578 35.9534 23.1289 33.7627 23.1289 31.4431H39.1082Z" fill="white"/>
<path d="M55.2166 31.4431H69.7785C69.7785 39.6905 66.5568 47.1648 61.2733 52.5772C58.9537 50.1287 56.1187 48.0668 53.0259 46.3916C54.4434 42.0101 55.2166 36.9844 55.2166 31.4431Z" fill="white"/>
<path d="M71.8402 14.6907C72.4846 14.6907 73 15.2062 73 15.8505C73 16.4948 72.4846 17.0103 71.8402 17.0103C71.1959 17.0103 70.6804 16.4948 70.6804 15.8505C70.6804 15.2062 71.1959 14.6907 71.8402 14.6907Z" fill="#EB6320"/>
<path d="M69.7784 31.4431H55.2166C55.2166 26.0307 54.4434 20.8761 53.1548 16.3658C56.2476 14.8194 58.9537 12.7575 61.4022 10.1802C66.5568 15.7214 69.7784 23.1956 69.7784 31.4431Z" fill="white"/>
<path d="M62.1752 1.80396C62.8195 1.80396 63.335 2.31945 63.335 2.96378C63.335 3.60811 62.8195 4.12357 62.1752 4.12357C61.5309 4.12357 61.0154 3.60811 61.0154 2.96378C61.0154 2.31945 61.5309 1.80396 62.1752 1.80396Z" fill="#EB6320"/>
<path d="M39.1082 0.773438C47.871 0.773438 55.7319 4.38168 61.2731 10.3095C58.9535 12.758 56.1184 14.8198 53.0257 16.4951C50.3195 7.08788 45.1649 0.773438 39.1082 0.773438Z" fill="white"/>
<path d="M61.2731 52.5775C55.7319 58.3764 47.871 62.1135 39.1082 62.1135C45.1649 62.1135 50.3195 55.7991 53.1546 46.5208C56.2474 48.0671 58.9535 50.129 61.2731 52.5775Z" fill="white"/>
<path d="M55.6033 67.0103C56.2477 67.0103 56.7632 67.5257 56.7632 68.17C56.7632 68.8144 56.2477 69.3299 55.6033 69.3299C54.959 69.3299 54.4436 68.8144 54.4436 68.17C54.4436 67.5257 54.959 67.0103 55.6033 67.0103Z" fill="#EB6320"/>
<path d="M55.2164 31.4433H39.1082V19.7165C44.1339 19.7165 48.902 18.5567 53.1546 16.366C54.4432 20.8763 55.2164 26.0309 55.2164 31.4433Z" fill="white"/>
<path d="M53.1546 16.3662C48.902 18.5569 44.1339 19.7167 39.1082 19.7167V0.773438C45.1649 0.773438 50.3195 7.08788 53.1546 16.3662Z" fill="white"/>
<path d="M39.1084 43.1702V62.1135C36.1445 62.1135 33.3095 61.7269 30.6033 60.9537C32.2785 58.6341 33.3094 56.0568 33.3094 52.5774C33.3094 49.4846 32.4074 46.6496 30.861 44.2011C33.5672 43.5568 36.2733 43.1702 39.1084 43.1702Z" fill="white"/>
<path d="M39.1082 19.7165V31.4433H23.1289C23.1289 26.0309 23.9021 20.8763 25.1907 16.366C29.3144 18.5567 34.0825 19.7165 39.1082 19.7165Z" fill="white"/>
<path d="M39.1084 0.773438V19.7167C34.0826 19.7167 29.3146 18.5569 25.062 16.3662C27.8971 7.08788 33.1805 0.773438 39.1084 0.773438Z" fill="white"/>
<path d="M35.629 65.4639C36.2733 65.4639 36.7888 65.9793 36.7888 66.6237C36.7888 67.268 36.2733 67.7834 35.629 67.7834C34.9847 67.7834 34.4692 67.268 34.4692 66.6237C34.4692 65.9793 34.9847 65.4639 35.629 65.4639Z" fill="#EB6320"/>
<path d="M33.4383 52.5774C33.4383 62.5001 24.16 65.7218 17.9744 74.2269C11.7888 65.8506 2.5105 62.629 2.5105 52.5774C2.5105 44.0723 9.46926 37.1135 17.9744 37.1135C26.4796 37.1135 33.4383 44.0723 33.4383 52.5774Z" fill="white"/>
<path d="M39.1082 0.773438C33.0515 0.773438 27.897 7.08788 25.0619 16.3662C21.9691 14.8198 19.2629 12.758 16.8145 10.3095C22.4846 4.38168 30.3454 0.773438 39.1082 0.773438Z" fill="white"/>
<path d="M17.9745 41.3662C24.1601 41.3662 29.1858 46.392 29.1858 52.5776C29.1858 58.7631 24.1601 63.7889 17.9745 63.7889C11.789 63.7889 6.76318 58.7631 6.76318 52.5776C6.76318 46.392 11.789 41.3662 17.9745 41.3662Z" fill="white"/>
<path d="M17.9746 44.5876C22.356 44.5876 25.9642 48.1959 25.9642 52.5774C25.9642 56.9588 22.356 60.567 17.9746 60.567C13.5931 60.567 9.98486 56.9588 9.98486 52.5774C9.98486 48.1959 13.5931 44.5876 17.9746 44.5876Z" fill="white"/>
<path d="M23.1291 31.4433C23.1291 33.7629 23.2579 35.9536 23.5156 38.1443C21.8404 37.5 20.0362 37.1134 18.1033 37.1134C15.0105 37.1134 12.0466 38.0155 9.72696 39.5619C8.95377 36.9845 8.56714 34.1495 8.56714 31.3145L23.1291 31.4433Z" fill="white"/>
<path d="M25.1908 16.366C23.9021 20.8764 23.129 25.9021 23.129 31.4433H8.43823C8.43823 23.1959 11.6598 15.7217 16.9434 10.3093C19.2629 12.7578 22.098 14.8197 25.1908 16.366Z" fill="white"/>
<path d="M7.40738 68.6855C8.05171 68.6855 8.56713 69.201 8.56713 69.8453C8.56713 70.4897 8.05171 71.0051 7.40738 71.0051C6.76305 71.0051 6.24756 70.4897 6.24756 69.8453C6.24756 69.201 6.76305 68.6855 7.40738 68.6855Z" fill="#EB6320"/>
<path d="M4.1857 17.1392C4.83003 17.1392 5.34545 17.6546 5.34545 18.2989C5.34545 18.9433 4.83003 19.4587 4.1857 19.4587C3.54137 19.4587 3.02588 18.9433 3.02588 18.2989C3.02588 17.6546 3.54137 17.1392 4.1857 17.1392Z" fill="#EB6320"/>
<path d="M39.1083 20.6185C34.0825 20.6185 29.1856 19.4587 24.8042 17.1391C21.7114 15.5927 18.8764 13.402 16.4279 10.8247C16.1702 10.5669 16.1702 10.0515 16.4279 9.66489C16.6856 9.40716 17.2011 9.40716 17.5877 9.66489C19.9073 12.1133 22.6135 14.0463 25.5774 15.5927C29.8299 17.7835 34.4692 18.8144 39.2372 18.8144C44.0052 18.8144 48.6444 17.6546 52.897 15.5927C55.8609 14.0463 58.5671 12.1133 60.8867 9.66489C61.1444 9.40716 61.6598 9.27829 62.0464 9.66489C62.3042 9.92262 62.433 10.4381 62.0464 10.8247C59.598 13.402 56.7629 15.4639 53.6701 17.1391C49.031 19.4587 44.1341 20.6185 39.1083 20.6185Z" fill="#EB6320"/>
<path d="M61.273 53.4792C61.0153 53.4792 60.8864 53.3504 60.6287 53.2215C58.3091 50.773 55.6029 48.84 52.639 47.2937C48.3864 45.1029 43.7473 44.072 38.9793 44.072C36.2731 44.072 33.5668 44.4586 31.1184 45.1029C30.7318 45.2318 30.2163 44.9741 30.0875 44.5875C29.9586 44.2009 30.2164 43.6854 30.603 43.5566C33.3092 42.7834 36.1442 42.3967 38.9793 42.3967C44.005 42.3967 48.9019 43.5565 53.2833 45.8761C56.3761 47.4225 59.2112 49.6132 61.6596 52.1905C61.9174 52.4483 61.9174 52.9637 61.6596 53.3503C61.6596 53.3503 61.5308 53.4792 61.273 53.4792Z" fill="#EB6320"/>
<path d="M69.7784 32.2165H8.4382C8.05161 32.2165 7.66504 31.8299 7.66504 31.4433C7.66504 31.0567 8.05161 30.6702 8.4382 30.6702H69.7784C70.165 30.6702 70.5516 31.0567 70.5516 31.4433C70.6805 31.9588 70.2938 32.2165 69.7784 32.2165Z" fill="#EB6320"/>
<path d="M39.1084 62.8866C38.7218 62.8866 38.3352 62.5 38.3352 62.1134V0.773204C38.3352 0.386606 38.7218 0 39.1084 0C39.495 0 39.8816 0.386606 39.8816 0.773204V62.1134C39.8816 62.6289 39.6238 62.8866 39.1084 62.8866Z" fill="#EB6320"/>
<path d="M17.9744 61.3402C13.0775 61.3402 9.21143 57.3454 9.21143 52.5774C9.21143 47.8093 13.2063 43.8145 17.9744 43.8145C22.7424 43.8145 26.7372 47.8093 26.7372 52.5774C26.7372 57.3454 22.8713 61.3402 17.9744 61.3402ZM17.9744 45.4897C13.9795 45.4897 10.7578 48.7114 10.7578 52.7062C10.7578 56.701 13.9795 59.9227 17.9744 59.9227C21.9692 59.9227 25.1908 56.701 25.1908 52.7062C25.1908 48.7114 21.9692 45.4897 17.9744 45.4897Z" fill="#EB6320"/>
<path d="M39.1083 62.8867C36.1444 62.8867 33.1804 62.5001 30.4742 61.7269C30.0876 61.598 29.83 61.2114 29.9588 60.696C30.0877 60.3094 30.4743 60.0516 30.9897 60.1805C33.6959 60.9537 36.4021 61.3403 39.2372 61.3403C39.6238 61.3403 40.0103 61.7269 40.0103 62.1135C39.8815 62.6289 39.6237 62.8867 39.1083 62.8867Z" fill="#EB6320"/>
<path d="M39.1084 62.8866C38.7218 62.8866 38.3352 62.5 38.3352 62.1134C38.3352 61.7268 38.7218 61.3402 39.1084 61.3402C44.5207 61.3402 49.5465 55.5412 52.3815 46.2629C53.6702 41.7526 54.4434 36.5979 54.4434 31.4433C54.4434 26.2886 53.7991 21.134 52.3815 16.6237C49.6754 7.34535 44.5207 1.54641 39.1084 1.54641C38.7218 1.54641 38.3352 1.1598 38.3352 0.773204C38.3352 0.386606 38.7218 0 39.1084 0C43.4898 0 47.7424 0.902062 51.7372 2.57732C55.6032 4.25258 58.9537 6.70103 61.9177 9.66495C67.5878 15.5928 70.6805 23.3247 70.6805 31.4433C70.6805 39.5618 67.5878 47.2938 61.9177 53.2217C58.9537 56.3144 55.6032 58.634 51.7372 60.3093C47.7424 62.1134 43.4898 62.8866 39.1084 62.8866ZM45.5517 2.31961C46.4537 2.96394 47.227 3.73712 48.0002 4.63918C50.4486 7.47423 52.5104 11.4691 53.928 16.2371C55.3455 20.8763 55.9899 26.1598 55.9899 31.5722C55.9899 36.9845 55.2166 42.268 53.928 46.9072C52.5104 51.6752 50.4486 55.6701 48.0002 58.5051C47.227 59.4072 46.4537 60.1804 45.5517 60.8247C51.3506 59.5361 56.6341 56.701 60.7578 52.1907C66.0413 46.6495 69.0053 39.3041 69.0053 31.5722C69.0053 23.8402 66.0413 16.4948 60.7578 10.9536C56.5053 6.4433 51.2218 3.4794 45.5517 2.31961Z" fill="#EB6320"/>
<path d="M9.59803 40.4639C9.21143 40.4639 8.95365 40.2062 8.82479 39.8196C8.05159 37.1134 7.66504 34.2783 7.66504 31.4433C7.66504 23.3247 10.7578 15.5928 16.4279 9.66495C19.3918 6.57216 22.7423 4.25258 26.6083 2.57732C30.6031 0.902062 34.8558 0 39.2372 0C39.6238 0 40.0104 0.386606 40.0104 0.773204C40.0104 1.1598 39.6238 1.54641 39.2372 1.54641C33.8248 1.54641 28.799 7.34535 25.9639 16.6237C24.6753 21.134 23.9021 26.2886 23.9021 31.4433C23.9021 33.634 24.031 35.9536 24.2887 38.0155C24.2887 38.4021 24.031 38.9175 23.6444 38.9175C23.2578 38.9175 22.7423 38.6598 22.7423 38.2732C22.4846 36.0825 22.3557 33.7629 22.3557 31.4433C22.3557 26.0309 23.129 20.7474 24.4176 16.1082C25.8351 11.3402 27.897 7.34536 30.3454 4.51031C31.1186 3.60825 31.8918 2.83507 32.7939 2.19074C26.9949 3.4794 21.7114 6.31442 17.5877 10.8247C12.3042 16.366 9.34028 23.7113 9.34028 31.4433C9.34028 34.1495 9.72686 36.8557 10.3712 39.433C10.5001 39.8196 10.2423 40.335 9.8557 40.4639H9.59803Z" fill="#EB6320"/>
<path d="M17.9742 74.9999C17.7165 74.9999 17.4588 74.871 17.3299 74.6133C15.268 71.7782 12.8195 69.5875 10.4999 67.3968C5.98962 63.2731 1.73706 59.4071 1.73706 52.5772C1.73706 47.036 4.44326 42.0102 9.08244 38.9174C11.6598 37.2421 14.7526 36.3401 17.9742 36.3401C19.9072 36.3401 21.8402 36.7267 23.7732 37.371C26.9948 38.5308 29.8299 40.8504 31.634 43.8143C33.3092 46.3916 34.2113 49.4844 34.2113 52.5772C34.2113 55.67 33.3093 58.6339 31.2474 61.3401C29.701 63.5308 27.6391 65.3349 25.4484 67.3968C23.1288 69.5875 20.6804 71.7782 18.6185 74.6133C18.4897 74.871 18.232 74.9999 17.9742 74.9999ZM17.9742 38.0153C15.1392 38.0153 12.3041 38.7885 9.98451 40.3349C5.8608 43.0411 3.28347 47.6803 3.28347 52.5772C3.28347 58.7628 7.02056 62.2421 11.402 66.237C13.5927 68.2988 15.7835 70.2318 17.8453 72.8091C19.9072 70.2318 22.0979 68.17 24.2886 66.237C26.3505 64.304 28.4123 62.4999 29.8298 60.438C31.6339 57.9895 32.4071 55.5411 32.4071 52.5772C32.4071 49.6133 31.634 47.036 30.0876 44.7164C28.4123 42.1391 25.835 40.0772 22.9999 38.9174C21.5824 38.2731 19.7783 38.0153 17.9742 38.0153Z" fill="#EB6320"/>
<path d="M5.34538 12.2421C2.63919 12.2421 0.448486 10.0514 0.448486 7.34517C0.448486 4.63899 2.63919 2.44824 5.34538 2.44824C8.05156 2.44824 10.2423 4.63899 10.2423 7.34517C10.2423 10.0514 8.05156 12.2421 5.34538 12.2421ZM5.34538 4.12352C3.54125 4.12352 2.12373 5.54105 2.12373 7.34517C2.12373 9.1493 3.54125 10.5668 5.34538 10.5668C7.1495 10.5668 8.56703 9.1493 8.56703 7.34517C8.56703 5.54105 7.1495 4.12352 5.34538 4.12352Z" fill="#EB6320"/>
<path d="M65.7836 67.0104C63.5929 67.0104 61.7888 65.2063 61.7888 63.0156C61.7888 60.8248 63.5929 59.0208 65.7836 59.0208C67.9744 59.0208 69.7784 60.8248 69.7784 63.0156C69.7784 65.2063 67.9744 67.0104 65.7836 67.0104ZM65.7836 60.5671C64.495 60.5671 63.3351 61.598 63.3351 63.0156C63.3351 64.4331 64.3661 65.464 65.7836 65.464C67.2012 65.464 68.2321 64.4331 68.2321 63.0156C68.2321 61.598 67.0723 60.5671 65.7836 60.5671Z" fill="#EB6320"/>
</svg>
