<svg width="73" height="75" viewBox="0 0 73 75" fill="none" xmlns="http://www.w3.org/2000/svg">
<path d="M65.7832 59.665C67.5873 59.665 69.0048 61.0826 69.0048 62.8867C69.0048 64.6908 67.5873 66.1083 65.7832 66.1083C63.979 66.1083 62.5615 64.6908 62.5615 62.8867C62.5615 61.0826 63.979 59.665 65.7832 59.665Z" fill="white"/>
<path d="M5.34491 3.35059C7.53563 3.35059 9.3398 5.15472 9.3398 7.34544C9.3398 9.53616 7.53563 11.3403 5.34491 11.3403C3.15419 11.3403 1.3501 9.53616 1.3501 7.34544C1.3501 5.15472 3.15419 3.35059 5.34491 3.35059Z" fill="white"/>
<path d="M39.1079 43.1702C44.1337 43.1702 48.9018 44.33 53.1543 46.5207C50.4481 55.799 45.1646 62.1135 39.1079 62.1135V43.1702Z" fill="white"/>
<path d="M39.1079 31.4431H55.2162C55.2162 36.8555 54.443 42.0101 53.1543 46.5204C48.9018 44.3297 44.1337 43.1699 39.1079 43.1699V31.4431Z" fill="white"/>
<path d="M39.1082 31.4431V43.1699C36.2732 43.1699 33.567 43.5565 30.9897 44.2009C29.1856 41.4947 26.6083 39.304 23.5155 38.1442C23.2578 35.9534 23.1289 33.7627 23.1289 31.4431H39.1082Z" fill="white"/>
<path d="M55.2161 31.4431H69.778C69.778 39.6905 66.5563 47.1648 61.2728 52.5772C58.9533 50.1287 56.1182 48.0668 53.0254 46.3916C54.4429 42.0101 55.2161 36.9844 55.2161 31.4431Z" fill="white"/>
<path d="M71.84 14.6907C72.4843 14.6907 72.9997 15.2062 72.9997 15.8505C72.9997 16.4948 72.4843 17.0103 71.84 17.0103C71.1957 17.0103 70.6802 16.4948 70.6802 15.8505C70.6802 15.2062 71.1957 14.6907 71.84 14.6907Z" fill="#EB6320"/>
<path d="M69.7784 31.4431H55.2166C55.2166 26.0307 54.4434 20.8761 53.1548 16.3658C56.2476 14.8194 58.9537 12.7575 61.4022 10.1802C66.5568 15.7214 69.7784 23.1956 69.7784 31.4431Z" fill="white"/>
<path d="M62.175 1.80396C62.8193 1.80396 63.3347 2.31945 63.3347 2.96378C63.3347 3.60811 62.8193 4.12357 62.175 4.12357C61.5306 4.12357 61.0151 3.60811 61.0151 2.96378C61.0151 2.31945 61.5306 1.80396 62.175 1.80396Z" fill="#EB6320"/>
<path d="M39.1079 0.773438C47.8708 0.773438 55.7316 4.38168 61.2729 10.3095C58.9533 12.758 56.1182 14.8198 53.0254 16.4951C50.3192 7.08788 45.1646 0.773438 39.1079 0.773438Z" fill="white"/>
<path d="M61.2729 52.5775C55.7316 58.3764 47.8708 62.1135 39.1079 62.1135C45.1646 62.1135 50.3193 55.7991 53.1543 46.5208C56.2471 48.0671 58.9533 50.129 61.2729 52.5775Z" fill="white"/>
<path d="M55.6031 67.0103C56.2474 67.0103 56.7629 67.5257 56.7629 68.17C56.7629 68.8144 56.2474 69.3299 55.6031 69.3299C54.9588 69.3299 54.4434 68.8144 54.4434 68.17C54.4434 67.5257 54.9588 67.0103 55.6031 67.0103Z" fill="#EB6320"/>
<path d="M55.2162 31.4433H39.1079V19.7165C44.1337 19.7165 48.9018 18.5567 53.1543 16.366C54.443 20.8763 55.2162 26.0309 55.2162 31.4433Z" fill="white"/>
<path d="M53.1543 16.3662C48.9018 18.5569 44.1337 19.7167 39.1079 19.7167V0.773438C45.1646 0.773438 50.3193 7.08788 53.1543 16.3662Z" fill="white"/>
<path d="M39.1081 43.1702V62.1135C36.1442 62.1135 33.3092 61.7269 30.603 60.9537C32.2783 58.6341 33.3092 56.0568 33.3092 52.5774C33.3092 49.4846 32.4072 46.6496 30.8608 44.2011C33.567 43.5568 36.2731 43.1702 39.1081 43.1702Z" fill="white"/>
<path d="M39.1082 19.7165V31.4433H23.1289C23.1289 26.0309 23.9021 20.8763 25.1907 16.366C29.3144 18.5567 34.0825 19.7165 39.1082 19.7165Z" fill="white"/>
<path d="M39.1079 0.773438V19.7167C34.0821 19.7167 29.3141 18.5569 25.0615 16.3662C27.8966 7.08788 33.18 0.773438 39.1079 0.773438Z" fill="white"/>
<path d="M35.629 65.4639C36.2733 65.4639 36.7888 65.9793 36.7888 66.6237C36.7888 67.268 36.2733 67.7834 35.629 67.7834C34.9847 67.7834 34.4692 67.268 34.4692 66.6237C34.4692 65.9793 34.9847 65.4639 35.629 65.4639Z" fill="#EB6320"/>
<path d="M33.4381 52.5774C33.4381 62.5001 24.1597 65.7218 17.9742 74.2269C11.7886 65.8506 2.51025 62.629 2.51025 52.5774C2.51025 44.0723 9.46902 37.1135 17.9742 37.1135C26.4793 37.1135 33.4381 44.0723 33.4381 52.5774Z" fill="white"/>
<path d="M39.1078 0.773438C33.0511 0.773438 27.8965 7.08788 25.0614 16.3662C21.9686 14.8198 19.2624 12.758 16.814 10.3095C22.4841 4.38168 30.3449 0.773438 39.1078 0.773438Z" fill="white"/>
<path d="M17.974 41.3662C24.1596 41.3662 29.1853 46.392 29.1853 52.5776C29.1853 58.7631 24.1596 63.7889 17.974 63.7889C11.7885 63.7889 6.7627 58.7631 6.7627 52.5776C6.7627 46.392 11.7885 41.3662 17.974 41.3662Z" fill="white"/>
<path d="M17.9741 44.5876C22.3555 44.5876 25.9637 48.1959 25.9637 52.5774C25.9637 56.9588 22.3555 60.567 17.9741 60.567C13.5926 60.567 9.98438 56.9588 9.98438 52.5774C9.98438 48.1959 13.5926 44.5876 17.9741 44.5876Z" fill="white"/>
<path d="M23.1288 31.4433C23.1288 33.7629 23.2577 35.9536 23.5154 38.1443C21.8401 37.5 20.036 37.1134 18.103 37.1134C15.0102 37.1134 12.0463 38.0155 9.72672 39.5619C8.95352 36.9845 8.56689 34.1495 8.56689 31.3145L23.1288 31.4433Z" fill="white"/>
<path d="M25.1906 16.366C23.9019 20.8764 23.1287 25.9021 23.1287 31.4433H8.43799C8.43799 23.1959 11.6596 15.7217 16.9431 10.3093C19.2627 12.7578 22.0978 14.8197 25.1906 16.366Z" fill="white"/>
<path d="M21.3245 53.2216C21.4534 53.4794 21.4533 53.8659 21.4533 54.2525C21.4533 54.768 21.3245 55.1546 21.1957 55.4123C21.0668 55.7989 20.8091 56.0567 20.5514 56.1855C20.2936 56.4433 19.907 56.5721 19.6493 56.701C19.2627 56.8298 18.876 56.8298 18.4894 56.8298V58.2474H17.5874V56.8298C17.0719 56.8298 16.4276 56.701 15.9121 56.4433C15.3967 56.3144 14.8812 56.0567 14.3657 55.6701L15.2678 53.8659C15.2678 53.8659 15.3967 53.9948 15.5255 54.1237C15.6544 54.2525 15.9122 54.3814 16.041 54.3814C16.2988 54.5103 16.5565 54.6391 16.8142 54.6391C17.0719 54.768 17.3297 54.768 17.7163 54.8969V53.2216L17.072 53.0927C16.6854 52.9639 16.2988 52.835 16.041 52.7061C15.7833 52.5773 15.5255 52.4484 15.2678 52.1907C15.0101 52.0618 14.8812 51.8041 14.8812 51.5463V50.902C14.8812 50.5154 15.0101 50.1288 15.139 49.7422C15.2678 49.3556 15.5256 49.0979 15.7833 48.8401C16.041 48.5824 16.2988 48.4536 16.6854 48.3247C17.072 48.1958 17.4585 48.067 17.8451 48.067V46.7783H18.7472V48.067C19.2627 48.067 19.7781 48.1958 20.2936 48.4536C20.8091 48.5824 21.1957 48.8402 21.5823 49.0979L20.6802 50.7731C20.6802 50.7731 20.5513 50.6443 20.4224 50.6443C20.2936 50.6443 20.1648 50.5154 19.907 50.3866C19.7782 50.2577 19.5204 50.2577 19.2627 50.1288C19.005 49.9999 18.7472 50 18.6184 50V51.6752H18.7472C19.1338 51.8041 19.5204 51.9329 19.907 52.0618C20.2936 52.1907 20.5513 52.3196 20.809 52.5773C21.0668 52.7062 21.1956 52.9639 21.3245 53.2216ZM18.3606 55.1546C19.0049 55.1546 19.2627 54.8969 19.2627 54.5103C19.2627 54.2525 19.1338 54.1236 19.0049 53.9948C18.8761 53.8659 18.6183 53.7371 18.3606 53.6082V55.1546ZM17.8451 51.4175V49.8711C17.3297 49.8711 16.943 50.1288 16.943 50.6443C16.943 50.902 17.0719 51.0309 17.2008 51.1598C17.3297 51.1598 17.4585 51.2886 17.8451 51.4175Z" fill="#EB6320"/>
<path d="M7.4069 68.6855C8.05123 68.6855 8.56664 69.201 8.56664 69.8453C8.56664 70.4897 8.05123 71.0051 7.4069 71.0051C6.76257 71.0051 6.24707 70.4897 6.24707 69.8453C6.24707 69.201 6.76257 68.6855 7.4069 68.6855Z" fill="#EB6320"/>
<path d="M4.18522 17.1392C4.82955 17.1392 5.34496 17.6546 5.34496 18.2989C5.34496 18.9433 4.82955 19.4587 4.18522 19.4587C3.54089 19.4587 3.02539 18.9433 3.02539 18.2989C3.02539 17.6546 3.54089 17.1392 4.18522 17.1392Z" fill="#EB6320"/>
<path d="M39.1081 20.6185C34.0823 20.6185 29.1854 19.4587 24.804 17.1391C21.7112 15.5927 18.8761 13.402 16.4277 10.8247C16.1699 10.5669 16.1699 10.0515 16.4277 9.66489C16.6854 9.40716 17.2008 9.40716 17.5874 9.66489C19.907 12.1133 22.6132 14.0463 25.5771 15.5927C29.8297 17.7835 34.4689 18.8144 39.237 18.8144C44.005 18.8144 48.6441 17.6546 52.8967 15.5927C55.8606 14.0463 58.5668 12.1133 60.8864 9.66489C61.1442 9.40716 61.6596 9.27829 62.0462 9.66489C62.3039 9.92262 62.4328 10.4381 62.0462 10.8247C59.5977 13.402 56.7627 15.4639 53.6699 17.1391C49.0307 19.4587 44.1338 20.6185 39.1081 20.6185Z" fill="#EB6320"/>
<path d="M61.2728 53.4792C61.0151 53.4792 60.8862 53.3504 60.6285 53.2215C58.3089 50.773 55.6027 48.84 52.6388 47.2937C48.3862 45.1029 43.7471 44.072 38.979 44.072C36.2728 44.072 33.5666 44.4586 31.1181 45.1029C30.7315 45.2318 30.2161 44.9741 30.0872 44.5875C29.9584 44.2009 30.2161 43.6854 30.6027 43.5566C33.3089 42.7834 36.144 42.3967 38.979 42.3967C44.0048 42.3967 48.9017 43.5565 53.2831 45.8761C56.3759 47.4225 59.2109 49.6132 61.6594 52.1905C61.9171 52.4483 61.9171 52.9637 61.6594 53.3503C61.6594 53.3503 61.5305 53.4792 61.2728 53.4792Z" fill="#EB6320"/>
<path d="M69.7784 32.2165H8.4382C8.05161 32.2165 7.66504 31.8299 7.66504 31.4433C7.66504 31.0567 8.05161 30.6702 8.4382 30.6702H69.7784C70.165 30.6702 70.5516 31.0567 70.5516 31.4433C70.6805 31.9588 70.2938 32.2165 69.7784 32.2165Z" fill="#EB6320"/>
<path d="M39.1081 62.8866C38.7215 62.8866 38.335 62.5 38.335 62.1134V0.773204C38.335 0.386606 38.7215 0 39.1081 0C39.4947 0 39.8814 0.386606 39.8814 0.773204V62.1134C39.8814 62.6289 39.6236 62.8866 39.1081 62.8866Z" fill="#EB6320"/>
<path d="M17.9744 61.3402C13.0775 61.3402 9.21143 57.3454 9.21143 52.5774C9.21143 47.8093 13.2063 43.8145 17.9744 43.8145C22.7424 43.8145 26.7372 47.8093 26.7372 52.5774C26.7372 57.3454 22.8713 61.3402 17.9744 61.3402ZM17.9744 45.4897C13.9795 45.4897 10.7578 48.7114 10.7578 52.7062C10.7578 56.701 13.9795 59.9227 17.9744 59.9227C21.9692 59.9227 25.1908 56.701 25.1908 52.7062C25.1908 48.7114 21.9692 45.4897 17.9744 45.4897Z" fill="#EB6320"/>
<path d="M17.9743 64.5618C11.4022 64.5618 5.98975 59.1495 5.98975 52.5773C5.98975 46.0052 11.4022 40.5928 17.9743 40.5928C24.5465 40.5928 29.9589 46.0052 29.9589 52.5773C29.9589 59.1495 24.5465 64.5618 17.9743 64.5618ZM17.9743 42.2681C12.3042 42.2681 7.53615 46.9072 7.53615 52.7062C7.53615 58.5051 12.1754 63.1443 17.9743 63.1443C23.7733 63.1443 28.4125 58.5051 28.4125 52.7062C28.4125 46.9072 23.7733 42.2681 17.9743 42.2681Z" fill="#EB6320"/>
<path d="M39.1083 62.8867C36.1444 62.8867 33.1804 62.5001 30.4742 61.7269C30.0876 61.598 29.83 61.2114 29.9588 60.696C30.0877 60.3094 30.4743 60.0516 30.9897 60.1805C33.6959 60.9537 36.4021 61.3403 39.2372 61.3403C39.6238 61.3403 40.0103 61.7269 40.0103 62.1135C39.8815 62.6289 39.6237 62.8867 39.1083 62.8867Z" fill="#EB6320"/>
<path d="M39.1081 62.8866C38.7215 62.8866 38.335 62.5 38.335 62.1134C38.335 61.7268 38.7215 61.3402 39.1081 61.3402C44.5205 61.3402 49.5463 55.5412 52.3813 46.2629C53.67 41.7526 54.4432 36.5979 54.4432 31.4433C54.4432 26.2886 53.7988 21.134 52.3813 16.6237C49.6751 7.34535 44.5205 1.54641 39.1081 1.54641C38.7215 1.54641 38.335 1.1598 38.335 0.773204C38.335 0.386606 38.7215 0 39.1081 0C43.4896 0 47.7421 0.902062 51.737 2.57732C55.603 4.25258 58.9535 6.70103 61.9174 9.66495C67.5875 15.5928 70.6803 23.3247 70.6803 31.4433C70.6803 39.5618 67.5875 47.2938 61.9174 53.2217C58.9535 56.3144 55.603 58.634 51.737 60.3093C47.7421 62.1134 43.4896 62.8866 39.1081 62.8866ZM45.5514 2.31961C46.4535 2.96394 47.2267 3.73712 47.9999 4.63918C50.4484 7.47423 52.5102 11.4691 53.9277 16.2371C55.3452 20.8763 55.9896 26.1598 55.9896 31.5722C55.9896 36.9845 55.2164 42.268 53.9277 46.9072C52.5102 51.6752 50.4484 55.6701 47.9999 58.5051C47.2267 59.4072 46.4535 60.1804 45.5514 60.8247C51.3504 59.5361 56.6339 56.701 60.7576 52.1907C66.0411 46.6495 69.005 39.3041 69.005 31.5722C69.005 23.8402 66.0411 16.4948 60.7576 10.9536C56.505 6.4433 51.2215 3.4794 45.5514 2.31961Z" fill="#EB6320"/>
<path d="M9.59803 40.4639C9.21143 40.4639 8.95365 40.2062 8.82479 39.8196C8.05159 37.1134 7.66504 34.2783 7.66504 31.4433C7.66504 23.3247 10.7578 15.5928 16.4279 9.66495C19.3918 6.57216 22.7423 4.25258 26.6083 2.57732C30.6031 0.902062 34.8558 0 39.2372 0C39.6238 0 40.0104 0.386606 40.0104 0.773204C40.0104 1.1598 39.6238 1.54641 39.2372 1.54641C33.8248 1.54641 28.799 7.34535 25.9639 16.6237C24.6753 21.134 23.9021 26.2886 23.9021 31.4433C23.9021 33.634 24.031 35.9536 24.2887 38.0155C24.2887 38.4021 24.031 38.9175 23.6444 38.9175C23.2578 38.9175 22.7423 38.6598 22.7423 38.2732C22.4846 36.0825 22.3557 33.7629 22.3557 31.4433C22.3557 26.0309 23.129 20.7474 24.4176 16.1082C25.8351 11.3402 27.897 7.34536 30.3454 4.51031C31.1186 3.60825 31.8918 2.83507 32.7939 2.19074C26.9949 3.4794 21.7114 6.31442 17.5877 10.8247C12.3042 16.366 9.34028 23.7113 9.34028 31.4433C9.34028 34.1495 9.72686 36.8557 10.3712 39.433C10.5001 39.8196 10.2423 40.335 9.8557 40.4639H9.59803Z" fill="#EB6320"/>
<path d="M17.974 74.9999C17.7162 74.9999 17.4585 74.871 17.3296 74.6133C15.2678 71.7782 12.8193 69.5875 10.4997 67.3968C5.98938 63.2731 1.73682 59.4071 1.73682 52.5772C1.73682 47.036 4.44302 42.0102 9.08219 38.9174C11.6595 37.2421 14.7523 36.3401 17.974 36.3401C19.907 36.3401 21.84 36.7267 23.7729 37.371C26.9946 38.5308 29.8296 40.8504 31.6337 43.8143C33.309 46.3916 34.2111 49.4844 34.2111 52.5772C34.2111 55.67 33.309 58.6339 31.2472 61.3401C29.7008 63.5308 27.6389 65.3349 25.4482 67.3968C23.1286 69.5875 20.6802 71.7782 18.6183 74.6133C18.4894 74.871 18.2317 74.9999 17.974 74.9999ZM17.974 38.0153C15.1389 38.0153 12.3039 38.7885 9.98427 40.3349C5.86056 43.0411 3.28322 47.6803 3.28322 52.5772C3.28322 58.7628 7.02032 62.2421 11.4018 66.237C13.5925 68.2988 15.7832 70.2318 17.8451 72.8091C19.9069 70.2318 22.0976 68.17 24.2884 66.237C26.3502 64.304 28.4121 62.4999 29.8296 60.438C31.6337 57.9895 32.4069 55.5411 32.4069 52.5772C32.4069 49.6133 31.6337 47.036 30.0873 44.7164C28.4121 42.1391 25.8348 40.0772 22.9997 38.9174C21.5822 38.2731 19.7781 38.0153 17.974 38.0153Z" fill="#EB6320"/>
<path d="M5.34513 12.2421C2.63895 12.2421 0.448242 10.0514 0.448242 7.34517C0.448242 4.63899 2.63895 2.44824 5.34513 2.44824C8.05132 2.44824 10.2421 4.63899 10.2421 7.34517C10.2421 10.0514 8.05132 12.2421 5.34513 12.2421ZM5.34513 4.12352C3.54101 4.12352 2.12348 5.54105 2.12348 7.34517C2.12348 9.1493 3.54101 10.5668 5.34513 10.5668C7.14926 10.5668 8.56678 9.1493 8.56678 7.34517C8.56678 5.54105 7.14926 4.12352 5.34513 4.12352Z" fill="#EB6320"/>
<path d="M65.7834 67.0104C63.5927 67.0104 61.7886 65.2063 61.7886 63.0156C61.7886 60.8248 63.5927 59.0208 65.7834 59.0208C67.9741 59.0208 69.7782 60.8248 69.7782 63.0156C69.7782 65.2063 67.9741 67.0104 65.7834 67.0104ZM65.7834 60.5671C64.4947 60.5671 63.3349 61.598 63.3349 63.0156C63.3349 64.4331 64.3659 65.464 65.7834 65.464C67.2009 65.464 68.2319 64.4331 68.2319 63.0156C68.2319 61.598 67.072 60.5671 65.7834 60.5671Z" fill="#EB6320"/>
<path d="M65.7832 59.665C67.5873 59.665 69.0048 61.0826 69.0048 62.8867C69.0048 64.6908 67.5873 66.1083 65.7832 66.1083C63.979 66.1083 62.5615 64.6908 62.5615 62.8867C62.5615 61.0826 63.979 59.665 65.7832 59.665Z" fill="white"/>
<path d="M5.34491 3.35059C7.53563 3.35059 9.3398 5.15472 9.3398 7.34544C9.3398 9.53616 7.53563 11.3403 5.34491 11.3403C3.15419 11.3403 1.3501 9.53616 1.3501 7.34544C1.3501 5.15472 3.15419 3.35059 5.34491 3.35059Z" fill="white"/>
<path d="M39.1079 43.1702C44.1337 43.1702 48.9018 44.33 53.1543 46.5207C50.4481 55.799 45.1646 62.1135 39.1079 62.1135V43.1702Z" fill="white"/>
<path d="M39.1079 31.4431H55.2162C55.2162 36.8555 54.443 42.0101 53.1543 46.5204C48.9018 44.3297 44.1337 43.1699 39.1079 43.1699V31.4431Z" fill="white"/>
<path d="M39.1082 31.4431V43.1699C36.2732 43.1699 33.567 43.5565 30.9897 44.2009C29.1856 41.4947 26.6083 39.304 23.5155 38.1442C23.2578 35.9534 23.1289 33.7627 23.1289 31.4431H39.1082Z" fill="white"/>
<path d="M55.2161 31.4431H69.778C69.778 39.6905 66.5563 47.1648 61.2728 52.5772C58.9533 50.1287 56.1182 48.0668 53.0254 46.3916C54.4429 42.0101 55.2161 36.9844 55.2161 31.4431Z" fill="white"/>
<path d="M71.84 14.6907C72.4843 14.6907 72.9997 15.2062 72.9997 15.8505C72.9997 16.4948 72.4843 17.0103 71.84 17.0103C71.1957 17.0103 70.6802 16.4948 70.6802 15.8505C70.6802 15.2062 71.1957 14.6907 71.84 14.6907Z" fill="#EB6320"/>
<path d="M69.7784 31.4431H55.2166C55.2166 26.0307 54.4434 20.8761 53.1548 16.3658C56.2476 14.8194 58.9537 12.7575 61.4022 10.1802C66.5568 15.7214 69.7784 23.1956 69.7784 31.4431Z" fill="white"/>
<path d="M62.175 1.80396C62.8193 1.80396 63.3347 2.31945 63.3347 2.96378C63.3347 3.60811 62.8193 4.12357 62.175 4.12357C61.5306 4.12357 61.0151 3.60811 61.0151 2.96378C61.0151 2.31945 61.5306 1.80396 62.175 1.80396Z" fill="#EB6320"/>
<path d="M39.1079 0.773438C47.8708 0.773438 55.7316 4.38168 61.2729 10.3095C58.9533 12.758 56.1182 14.8198 53.0254 16.4951C50.3192 7.08788 45.1646 0.773438 39.1079 0.773438Z" fill="white"/>
<path d="M61.2729 52.5775C55.7316 58.3764 47.8708 62.1135 39.1079 62.1135C45.1646 62.1135 50.3193 55.7991 53.1543 46.5208C56.2471 48.0671 58.9533 50.129 61.2729 52.5775Z" fill="white"/>
<path d="M55.6031 67.0103C56.2474 67.0103 56.7629 67.5257 56.7629 68.17C56.7629 68.8144 56.2474 69.3299 55.6031 69.3299C54.9588 69.3299 54.4434 68.8144 54.4434 68.17C54.4434 67.5257 54.9588 67.0103 55.6031 67.0103Z" fill="#EB6320"/>
<path d="M55.2162 31.4433H39.1079V19.7165C44.1337 19.7165 48.9018 18.5567 53.1543 16.366C54.443 20.8763 55.2162 26.0309 55.2162 31.4433Z" fill="white"/>
<path d="M53.1543 16.3662C48.9018 18.5569 44.1337 19.7167 39.1079 19.7167V0.773438C45.1646 0.773438 50.3193 7.08788 53.1543 16.3662Z" fill="white"/>
<path d="M39.1081 43.1702V62.1135C36.1442 62.1135 33.3092 61.7269 30.603 60.9537C32.2783 58.6341 33.3092 56.0568 33.3092 52.5774C33.3092 49.4846 32.4072 46.6496 30.8608 44.2011C33.567 43.5568 36.2731 43.1702 39.1081 43.1702Z" fill="white"/>
<path d="M39.1082 19.7165V31.4433H23.1289C23.1289 26.0309 23.9021 20.8763 25.1907 16.366C29.3144 18.5567 34.0825 19.7165 39.1082 19.7165Z" fill="white"/>
<path d="M39.1079 0.773438V19.7167C34.0821 19.7167 29.3141 18.5569 25.0615 16.3662C27.8966 7.08788 33.18 0.773438 39.1079 0.773438Z" fill="white"/>
<path d="M35.629 65.4639C36.2733 65.4639 36.7888 65.9793 36.7888 66.6237C36.7888 67.268 36.2733 67.7834 35.629 67.7834C34.9847 67.7834 34.4692 67.268 34.4692 66.6237C34.4692 65.9793 34.9847 65.4639 35.629 65.4639Z" fill="#EB6320"/>
<path d="M33.4381 52.5774C33.4381 62.5001 24.1597 65.7218 17.9742 74.2269C11.7886 65.8506 2.51025 62.629 2.51025 52.5774C2.51025 44.0723 9.46902 37.1135 17.9742 37.1135C26.4793 37.1135 33.4381 44.0723 33.4381 52.5774Z" fill="white"/>
<path d="M39.1078 0.773438C33.0511 0.773438 27.8965 7.08788 25.0614 16.3662C21.9686 14.8198 19.2624 12.758 16.814 10.3095C22.4841 4.38168 30.3449 0.773438 39.1078 0.773438Z" fill="white"/>
<path d="M17.974 41.3662C24.1596 41.3662 29.1853 46.392 29.1853 52.5776C29.1853 58.7631 24.1596 63.7889 17.974 63.7889C11.7885 63.7889 6.7627 58.7631 6.7627 52.5776C6.7627 46.392 11.7885 41.3662 17.974 41.3662Z" fill="white"/>
<path d="M17.9741 44.5876C22.3555 44.5876 25.9637 48.1959 25.9637 52.5774C25.9637 56.9588 22.3555 60.567 17.9741 60.567C13.5926 60.567 9.98438 56.9588 9.98438 52.5774C9.98438 48.1959 13.5926 44.5876 17.9741 44.5876Z" fill="white"/>
<path d="M23.1288 31.4433C23.1288 33.7629 23.2577 35.9536 23.5154 38.1443C21.8401 37.5 20.036 37.1134 18.103 37.1134C15.0102 37.1134 12.0463 38.0155 9.72672 39.5619C8.95352 36.9845 8.56689 34.1495 8.56689 31.3145L23.1288 31.4433Z" fill="white"/>
<path d="M25.1906 16.366C23.9019 20.8764 23.1287 25.9021 23.1287 31.4433H8.43799C8.43799 23.1959 11.6596 15.7217 16.9431 10.3093C19.2627 12.7578 22.0978 14.8197 25.1906 16.366Z" fill="white"/>
<path d="M7.4069 68.6855C8.05123 68.6855 8.56664 69.201 8.56664 69.8453C8.56664 70.4897 8.05123 71.0051 7.4069 71.0051C6.76257 71.0051 6.24707 70.4897 6.24707 69.8453C6.24707 69.201 6.76257 68.6855 7.4069 68.6855Z" fill="#EB6320"/>
<path d="M4.18522 17.1392C4.82955 17.1392 5.34496 17.6546 5.34496 18.2989C5.34496 18.9433 4.82955 19.4587 4.18522 19.4587C3.54089 19.4587 3.02539 18.9433 3.02539 18.2989C3.02539 17.6546 3.54089 17.1392 4.18522 17.1392Z" fill="#EB6320"/>
<path d="M39.1081 20.6185C34.0823 20.6185 29.1854 19.4587 24.804 17.1391C21.7112 15.5927 18.8761 13.402 16.4277 10.8247C16.1699 10.5669 16.1699 10.0515 16.4277 9.66489C16.6854 9.40716 17.2008 9.40716 17.5874 9.66489C19.907 12.1133 22.6132 14.0463 25.5771 15.5927C29.8297 17.7835 34.4689 18.8144 39.237 18.8144C44.005 18.8144 48.6441 17.6546 52.8967 15.5927C55.8606 14.0463 58.5668 12.1133 60.8864 9.66489C61.1442 9.40716 61.6596 9.27829 62.0462 9.66489C62.3039 9.92262 62.4328 10.4381 62.0462 10.8247C59.5977 13.402 56.7627 15.4639 53.6699 17.1391C49.0307 19.4587 44.1338 20.6185 39.1081 20.6185Z" fill="#EB6320"/>
<path d="M61.2728 53.4792C61.0151 53.4792 60.8862 53.3504 60.6285 53.2215C58.3089 50.773 55.6027 48.84 52.6388 47.2937C48.3862 45.1029 43.7471 44.072 38.979 44.072C36.2728 44.072 33.5666 44.4586 31.1181 45.1029C30.7315 45.2318 30.2161 44.9741 30.0872 44.5875C29.9584 44.2009 30.2161 43.6854 30.6027 43.5566C33.3089 42.7834 36.144 42.3967 38.979 42.3967C44.0048 42.3967 48.9017 43.5565 53.2831 45.8761C56.3759 47.4225 59.2109 49.6132 61.6594 52.1905C61.9171 52.4483 61.9171 52.9637 61.6594 53.3503C61.6594 53.3503 61.5305 53.4792 61.2728 53.4792Z" fill="#EB6320"/>
<path d="M69.7784 32.2165H8.4382C8.05161 32.2165 7.66504 31.8299 7.66504 31.4433C7.66504 31.0567 8.05161 30.6702 8.4382 30.6702H69.7784C70.165 30.6702 70.5516 31.0567 70.5516 31.4433C70.6805 31.9588 70.2938 32.2165 69.7784 32.2165Z" fill="#EB6320"/>
<path d="M39.1081 62.8866C38.7215 62.8866 38.335 62.5 38.335 62.1134V0.773204C38.335 0.386606 38.7215 0 39.1081 0C39.4947 0 39.8814 0.386606 39.8814 0.773204V62.1134C39.8814 62.6289 39.6236 62.8866 39.1081 62.8866Z" fill="#EB6320"/>
<path d="M17.9744 61.3402C13.0775 61.3402 9.21143 57.3454 9.21143 52.5774C9.21143 47.8093 13.2063 43.8145 17.9744 43.8145C22.7424 43.8145 26.7372 47.8093 26.7372 52.5774C26.7372 57.3454 22.8713 61.3402 17.9744 61.3402ZM17.9744 45.4897C13.9795 45.4897 10.7578 48.7114 10.7578 52.7062C10.7578 56.701 13.9795 59.9227 17.9744 59.9227C21.9692 59.9227 25.1908 56.701 25.1908 52.7062C25.1908 48.7114 21.9692 45.4897 17.9744 45.4897Z" fill="#EB6320"/>
<path d="M39.1083 62.8867C36.1444 62.8867 33.1804 62.5001 30.4742 61.7269C30.0876 61.598 29.83 61.2114 29.9588 60.696C30.0877 60.3094 30.4743 60.0516 30.9897 60.1805C33.6959 60.9537 36.4021 61.3403 39.2372 61.3403C39.6238 61.3403 40.0103 61.7269 40.0103 62.1135C39.8815 62.6289 39.6237 62.8867 39.1083 62.8867Z" fill="#EB6320"/>
<path d="M39.1081 62.8866C38.7215 62.8866 38.335 62.5 38.335 62.1134C38.335 61.7268 38.7215 61.3402 39.1081 61.3402C44.5205 61.3402 49.5463 55.5412 52.3813 46.2629C53.67 41.7526 54.4432 36.5979 54.4432 31.4433C54.4432 26.2886 53.7988 21.134 52.3813 16.6237C49.6751 7.34535 44.5205 1.54641 39.1081 1.54641C38.7215 1.54641 38.335 1.1598 38.335 0.773204C38.335 0.386606 38.7215 0 39.1081 0C43.4896 0 47.7421 0.902062 51.737 2.57732C55.603 4.25258 58.9535 6.70103 61.9174 9.66495C67.5875 15.5928 70.6803 23.3247 70.6803 31.4433C70.6803 39.5618 67.5875 47.2938 61.9174 53.2217C58.9535 56.3144 55.603 58.634 51.737 60.3093C47.7421 62.1134 43.4896 62.8866 39.1081 62.8866ZM45.5514 2.31961C46.4535 2.96394 47.2267 3.73712 47.9999 4.63918C50.4484 7.47423 52.5102 11.4691 53.9277 16.2371C55.3452 20.8763 55.9896 26.1598 55.9896 31.5722C55.9896 36.9845 55.2164 42.268 53.9277 46.9072C52.5102 51.6752 50.4484 55.6701 47.9999 58.5051C47.2267 59.4072 46.4535 60.1804 45.5514 60.8247C51.3504 59.5361 56.6339 56.701 60.7576 52.1907C66.0411 46.6495 69.005 39.3041 69.005 31.5722C69.005 23.8402 66.0411 16.4948 60.7576 10.9536C56.505 6.4433 51.2215 3.4794 45.5514 2.31961Z" fill="#EB6320"/>
<path d="M9.59803 40.4639C9.21143 40.4639 8.95365 40.2062 8.82479 39.8196C8.05159 37.1134 7.66504 34.2783 7.66504 31.4433C7.66504 23.3247 10.7578 15.5928 16.4279 9.66495C19.3918 6.57216 22.7423 4.25258 26.6083 2.57732C30.6031 0.902062 34.8558 0 39.2372 0C39.6238 0 40.0104 0.386606 40.0104 0.773204C40.0104 1.1598 39.6238 1.54641 39.2372 1.54641C33.8248 1.54641 28.799 7.34535 25.9639 16.6237C24.6753 21.134 23.9021 26.2886 23.9021 31.4433C23.9021 33.634 24.031 35.9536 24.2887 38.0155C24.2887 38.4021 24.031 38.9175 23.6444 38.9175C23.2578 38.9175 22.7423 38.6598 22.7423 38.2732C22.4846 36.0825 22.3557 33.7629 22.3557 31.4433C22.3557 26.0309 23.129 20.7474 24.4176 16.1082C25.8351 11.3402 27.897 7.34536 30.3454 4.51031C31.1186 3.60825 31.8918 2.83507 32.7939 2.19074C26.9949 3.4794 21.7114 6.31442 17.5877 10.8247C12.3042 16.366 9.34028 23.7113 9.34028 31.4433C9.34028 34.1495 9.72686 36.8557 10.3712 39.433C10.5001 39.8196 10.2423 40.335 9.8557 40.4639H9.59803Z" fill="#EB6320"/>
<path d="M17.974 74.9999C17.7162 74.9999 17.4585 74.871 17.3296 74.6133C15.2678 71.7782 12.8193 69.5875 10.4997 67.3968C5.98938 63.2731 1.73682 59.4071 1.73682 52.5772C1.73682 47.036 4.44302 42.0102 9.08219 38.9174C11.6595 37.2421 14.7523 36.3401 17.974 36.3401C19.907 36.3401 21.84 36.7267 23.7729 37.371C26.9946 38.5308 29.8296 40.8504 31.6337 43.8143C33.309 46.3916 34.2111 49.4844 34.2111 52.5772C34.2111 55.67 33.309 58.6339 31.2472 61.3401C29.7008 63.5308 27.6389 65.3349 25.4482 67.3968C23.1286 69.5875 20.6802 71.7782 18.6183 74.6133C18.4894 74.871 18.2317 74.9999 17.974 74.9999ZM17.974 38.0153C15.1389 38.0153 12.3039 38.7885 9.98427 40.3349C5.86056 43.0411 3.28322 47.6803 3.28322 52.5772C3.28322 58.7628 7.02032 62.2421 11.4018 66.237C13.5925 68.2988 15.7832 70.2318 17.8451 72.8091C19.9069 70.2318 22.0976 68.17 24.2884 66.237C26.3502 64.304 28.4121 62.4999 29.8296 60.438C31.6337 57.9895 32.4069 55.5411 32.4069 52.5772C32.4069 49.6133 31.6337 47.036 30.0873 44.7164C28.4121 42.1391 25.8348 40.0772 22.9997 38.9174C21.5822 38.2731 19.7781 38.0153 17.974 38.0153Z" fill="#EB6320"/>
<path d="M5.34513 12.2421C2.63895 12.2421 0.448242 10.0514 0.448242 7.34517C0.448242 4.63899 2.63895 2.44824 5.34513 2.44824C8.05132 2.44824 10.2421 4.63899 10.2421 7.34517C10.2421 10.0514 8.05132 12.2421 5.34513 12.2421ZM5.34513 4.12352C3.54101 4.12352 2.12348 5.54105 2.12348 7.34517C2.12348 9.1493 3.54101 10.5668 5.34513 10.5668C7.14926 10.5668 8.56678 9.1493 8.56678 7.34517C8.56678 5.54105 7.14926 4.12352 5.34513 4.12352Z" fill="#EB6320"/>
<path d="M65.7834 67.0104C63.5927 67.0104 61.7886 65.2063 61.7886 63.0156C61.7886 60.8248 63.5927 59.0208 65.7834 59.0208C67.9741 59.0208 69.7782 60.8248 69.7782 63.0156C69.7782 65.2063 67.9741 67.0104 65.7834 67.0104ZM65.7834 60.5671C64.4947 60.5671 63.3349 61.598 63.3349 63.0156C63.3349 64.4331 64.3659 65.464 65.7834 65.464C67.2009 65.464 68.2319 64.4331 68.2319 63.0156C68.2319 61.598 67.072 60.5671 65.7834 60.5671Z" fill="#EB6320"/>
</svg>
