<svg width="75" height="75" viewBox="0 0 75 75" fill="none" xmlns="http://www.w3.org/2000/svg">
<path d="M7.0537 65.6929C9.34688 65.6929 11.2353 67.5814 11.2353 69.8745C11.2353 72.1677 9.34688 74.0562 7.0537 74.0562C4.76053 74.0562 2.87207 72.1677 2.87207 69.8745C2.87207 67.5814 4.76053 65.6929 7.0537 65.6929Z" fill="white"/>
<path d="M67.7546 1.61914C71.0325 1.61914 73.6899 4.27651 73.6899 7.5544C73.6899 10.8323 71.0325 13.4897 67.7546 13.4897C64.4767 13.4897 61.8193 10.8323 61.8193 7.5544C61.8193 4.27651 64.4767 1.61914 67.7546 1.61914Z" fill="white"/>
<path d="M22.1607 38.7144C20.2722 38.7144 18.9233 40.1982 18.9233 42.0867C18.9233 43.9752 20.4071 45.459 22.2956 45.459H23.9143C26.3424 50.0454 31.1985 53.1479 36.5942 53.1479C44.5529 53.1479 51.0277 46.6731 51.0277 38.7144C52.9162 38.7144 54.2651 37.2306 54.2651 35.3421C54.2651 33.4536 52.7813 31.9698 50.8928 31.9698H49.2741C46.846 27.3835 42.1248 24.281 36.5942 24.281C28.6356 24.4158 22.1607 30.8907 22.1607 38.7144ZM69.7777 33.7234V43.8404L60.0655 44.9195C59.5259 47.0778 58.5817 49.2361 57.5026 51.1245L63.7076 58.6785L56.4234 65.8278L48.8694 59.6228C46.9809 60.7019 44.8227 61.6461 42.6644 62.1857L41.5852 71.898H31.4683L30.3891 62.1857C28.2309 61.6461 26.0726 60.7019 24.1841 59.6228L16.6301 65.8278L9.4808 58.6785L15.6859 51.1245C14.6068 49.2361 13.6625 47.0778 13.1229 44.9195L3.41064 43.8404V33.7234L13.1229 32.6443C13.6625 30.486 14.6068 28.3277 15.6859 26.4392L9.4808 18.8853L16.6301 11.7359L24.1841 17.941C26.0726 16.8619 28.2309 15.9176 30.3891 15.378L31.4683 5.66577H41.5852L42.6644 15.378C44.8227 15.9176 46.9809 16.8619 48.8694 17.941L56.4234 11.7359L63.5727 18.8853L57.3676 26.4392C58.4468 28.3277 59.391 30.486 59.9306 32.6443L69.7777 33.7234Z" fill="white"/>
<path d="M72.342 21.179C73.0165 21.179 73.556 21.7185 73.556 22.393C73.556 23.0674 73.0165 23.607 72.342 23.607C71.6675 23.607 71.1279 23.0674 71.1279 22.393C71.1279 21.7185 71.6675 21.179 72.342 21.179Z" fill="#EB6320"/>
<path d="M69.9137 52.3374C70.5882 52.3374 71.1278 52.877 71.1278 53.5514C71.1278 54.2259 70.5882 54.7655 69.9137 54.7655C69.2392 54.7655 68.6997 54.2259 68.6997 53.5514C68.6997 52.877 69.2392 52.3374 69.9137 52.3374Z" fill="#EB6320"/>
<path d="M53.0519 70.0083C53.7263 70.0083 54.2659 70.5479 54.2659 71.2223C54.2659 71.8968 53.7263 72.4363 53.0519 72.4363C52.3774 72.4363 51.8379 71.8968 51.8379 71.2223C51.8379 70.5479 52.3774 70.0083 53.0519 70.0083Z" fill="#EB6320"/>
<path d="M52.1086 3.37207C52.7831 3.37207 53.3226 3.91163 53.3226 4.58609C53.3226 5.26056 52.7831 5.80012 52.1086 5.80012C51.4341 5.80012 50.8945 5.26056 50.8945 4.58609C50.8945 3.91163 51.4341 3.37207 52.1086 3.37207Z" fill="#EB6320"/>
<path d="M24.3195 70.0083C24.9939 70.0083 25.5335 70.5479 25.5335 71.2223C25.5335 71.8968 24.9939 72.4363 24.3195 72.4363C23.645 72.4363 23.1055 71.8968 23.1055 71.2223C23.1055 70.5479 23.645 70.0083 24.3195 70.0083Z" fill="#EB6320"/>
<path d="M21.757 0C22.4315 0 22.971 0.539562 22.971 1.21402C22.971 1.88849 22.4315 2.42805 21.757 2.42805C21.0826 2.42805 20.543 1.88849 20.543 1.21402C20.543 0.539562 21.0826 0 21.757 0Z" fill="#EB6320"/>
<path d="M4.08605 11.0613C4.76052 11.0613 5.30012 11.6008 5.30012 12.2753C5.30012 12.9498 4.76052 13.4894 4.08605 13.4894C3.41159 13.4894 2.87207 12.9498 2.87207 12.2753C2.87207 11.6008 3.41159 11.0613 4.08605 11.0613Z" fill="#EB6320"/>
<path d="M1.52315 48.9663C2.19761 48.9663 2.73713 49.5059 2.73713 50.1803C2.73713 50.8548 2.19761 51.3944 1.52315 51.3944C0.848685 51.3944 0.309082 50.8548 0.309082 50.1803C0.309082 49.5059 0.848685 48.9663 1.52315 48.9663Z" fill="#EB6320"/>
<path d="M41.5866 72.8411H31.4696C31.065 72.8411 30.6603 72.5713 30.6603 72.0317L29.7161 62.859C27.8276 62.3194 26.074 61.645 24.3204 60.5658L17.1711 66.5011C16.9013 66.7709 16.3617 66.7709 16.092 66.5011L8.94268 59.3518C8.67289 59.082 8.67289 58.5424 8.94268 58.2727L14.743 51.1234C13.7988 49.3698 12.9894 47.6162 12.4498 45.7277L3.27718 44.7834C2.8725 44.7834 2.46777 44.3787 2.46777 43.974V33.8571C2.46777 33.4524 2.73761 33.0478 3.27718 33.0478L12.4498 32.1035C12.9894 30.215 13.6639 28.4614 14.743 26.7078L8.94268 19.5585C8.67289 19.2888 8.67289 18.7492 8.94268 18.4794L16.092 11.3301C16.3617 11.0603 16.9013 11.0603 17.1711 11.3301L24.3204 17.1304C26.074 16.1862 27.8276 15.3769 29.7161 14.8373L30.6603 5.66459C30.6603 5.25991 31.065 4.85522 31.4696 4.85522H41.5866C41.9913 4.85522 42.396 5.12502 42.396 5.66459L43.3402 14.8373C45.2287 15.3769 46.9823 16.0513 48.7359 17.1304L55.8852 11.3301C56.155 11.0603 56.6946 11.0603 56.9644 11.3301L64.1136 18.4794C64.3834 18.7492 64.3834 19.2888 64.1136 19.5585L58.3133 26.7078C59.2575 28.4614 60.0669 30.215 60.6065 32.1035L69.7791 33.0478C70.1838 33.0478 70.5885 33.4524 70.5885 33.8571V43.974C70.5885 44.3787 70.3187 44.7834 69.7791 44.7834L60.7413 45.5928C60.2018 47.4813 59.5273 49.2349 58.4481 50.9885L64.2486 58.1378C64.5184 58.4075 64.5184 58.9471 64.2486 59.2169L57.0992 66.3662C56.8294 66.636 56.2899 66.636 56.0201 66.3662L48.8708 60.5658C47.1172 61.5101 45.3636 62.3194 43.4751 62.859L42.5308 72.0317C42.396 72.4364 42.1262 72.8411 41.5866 72.8411ZM32.2791 71.0874H40.9121L41.8564 62.1845C41.8564 61.7799 42.1262 61.5101 42.5308 61.5101C44.5542 60.9705 46.5776 60.1612 48.601 59.082C48.8708 58.9471 49.2755 58.9471 49.5453 59.2169L56.5597 64.8824L62.6299 58.8122L56.9644 51.7978C56.6946 51.528 56.6946 51.1234 56.8295 50.8536C57.9086 48.9651 58.8529 46.9417 59.2575 44.7834C59.3924 44.3787 59.6622 44.2438 59.932 44.1089L68.8349 43.1647V34.5316L59.932 33.4524C59.5273 33.4524 59.2575 33.1827 59.2575 32.778C58.718 30.6197 57.9086 28.5963 56.8295 26.7078C56.6946 26.438 56.6946 26.0333 56.9644 25.7636L62.6299 18.7492L56.5597 12.679L49.5453 18.3445C49.2755 18.6143 48.8708 18.6143 48.601 18.4794C46.7125 17.4002 44.6891 16.456 42.5308 16.0513C42.1262 15.9164 41.9913 15.6466 41.8564 15.3769L40.9121 6.47395H32.2791L31.3348 15.3769C31.3348 15.7815 31.065 16.0513 30.6603 16.0513C28.502 16.5909 26.4787 17.4002 24.5902 18.6143C24.3204 18.7492 23.9157 18.7492 23.6459 18.4794L16.6315 12.8139L10.5613 18.8841L16.2268 25.8985C16.4966 26.1682 16.4967 26.5729 16.3618 26.8427C15.2826 28.7312 14.3383 30.7546 13.9336 32.9129C13.7987 33.1827 13.529 33.4524 13.1243 33.4524L4.22144 34.3967V43.0298L13.1243 43.974C13.529 43.974 13.7988 44.2438 13.7988 44.6485C14.3383 46.6719 15.1477 48.6953 16.2268 50.7187C16.3617 50.9885 16.3617 51.3932 16.092 51.6629L10.4265 58.6774L16.4966 64.7475L23.511 59.082C23.7808 58.8122 24.1855 58.8122 24.4553 58.9471C26.3438 60.0263 28.3672 60.9705 30.5255 61.3752C30.9301 61.5101 31.065 61.7799 31.1999 62.0497L32.2791 71.0874Z" fill="#EB6320"/>
<path d="M22.1619 39.6581C21.7573 39.6581 21.3525 39.2534 21.3525 38.8487C21.3525 36.4206 22.0271 33.8577 23.1062 31.6994C23.376 31.2947 23.7807 31.1598 24.1853 31.2947C24.59 31.5645 24.7249 31.9692 24.59 32.3739C23.5109 34.2624 22.9713 36.5555 22.9713 38.7138C22.9713 39.2534 22.5666 39.6581 22.1619 39.6581Z" fill="#EB6320"/>
<path d="M49.275 32.9151C49.0052 32.9151 48.7355 32.7802 48.4657 32.5104C46.0376 28.059 41.4513 25.3612 36.4602 25.3612C31.4692 25.3612 26.8829 28.059 24.4549 32.5104C24.1851 32.9151 23.7803 33.05 23.3757 32.9151C22.971 32.6454 22.8361 32.2407 22.971 31.836C25.6688 26.845 30.7948 23.7424 36.4602 23.7424C42.1257 23.7424 47.2516 26.845 49.9495 31.836C50.2193 32.2407 49.9495 32.7803 49.5448 32.9151C49.5448 32.7803 49.4099 32.9151 49.275 32.9151Z" fill="#EB6320"/>
<path d="M36.5954 53.9572C30.9299 53.9572 25.804 50.8547 23.1062 45.8636C22.8364 45.459 23.1061 44.9194 23.5108 44.7845C23.9155 44.6496 24.455 44.7845 24.5899 45.1892C27.018 49.6406 31.6044 52.3385 36.5954 52.3385C41.5864 52.3385 46.1727 49.6406 48.6008 45.1892C48.8706 44.7845 49.2752 44.6496 49.6799 44.7845C50.0846 45.0543 50.2195 45.459 50.0846 45.8636C47.3868 50.8547 42.2609 53.9572 36.5954 53.9572Z" fill="#EB6320"/>
<path d="M49.2754 46.4027C49.1405 46.4027 49.0057 46.4026 48.8708 46.2678C48.4661 45.998 48.3312 45.5933 48.4661 45.1886C49.5453 43.3001 50.0848 41.0069 50.0848 38.8487C50.0848 38.444 50.4895 38.0393 50.8942 38.0393C51.2988 38.0393 51.7035 38.444 51.7035 38.8487C51.7035 41.2767 51.029 43.8397 49.9499 45.998C49.815 46.1328 49.5452 46.4027 49.2754 46.4027Z" fill="#EB6320"/>
<path d="M51.7031 49.7747C51.4333 49.7747 51.1635 49.6398 51.0286 49.5049C50.7588 49.1002 50.7589 48.5606 51.1635 48.2908L53.4567 46.4024H22.2965C21.2174 46.4024 20.1382 45.9977 19.3289 45.1883C18.5195 44.379 18.1149 43.2998 18.1149 42.2207C18.1149 39.9275 20.0034 38.039 22.1617 38.039H50.8937C51.5682 38.039 52.1078 37.7692 52.6473 37.3645C53.1869 36.825 53.3218 36.2854 53.3218 35.611C53.3218 34.262 52.2427 33.048 50.7589 33.048H17.9799C17.5753 33.048 17.3055 32.7782 17.1706 32.5084C17.0357 32.2386 17.1706 31.834 17.3055 31.5642L21.4872 27.3825C21.757 27.1127 22.2965 27.1127 22.7012 27.3825C22.971 27.6523 22.971 28.1919 22.7012 28.5965L19.8685 31.4293H50.8937C53.1869 31.4293 55.0754 33.3178 55.0754 35.611C55.0754 36.6901 54.6707 37.7692 53.8614 38.5786C53.052 39.3879 52.1077 39.7926 51.0286 39.7926H22.1617C20.8127 39.7926 19.7336 41.0067 19.7336 42.3556C19.7336 43.03 20.0034 43.7045 20.4081 44.1092C20.9476 44.6487 21.4872 44.7836 22.1617 44.7836H55.8848C56.2895 44.7836 56.5592 45.0534 56.6941 45.3232C56.829 45.7279 56.6941 45.9977 56.4243 46.2675L52.2427 49.5049C52.1078 49.6398 51.9729 49.7747 51.7031 49.7747Z" fill="#EB6320"/>
<path d="M67.7554 14.2983C63.9784 14.2983 61.0107 11.3307 61.0107 7.55371C61.0107 3.77672 63.9784 0.809082 67.7554 0.809082C71.5324 0.809082 74.5 3.77672 74.5 7.55371C74.5 11.3307 71.5324 14.2983 67.7554 14.2983ZM67.7554 2.56271C64.9226 2.56271 62.6295 4.85586 62.6295 7.68861C62.6295 10.5213 64.9226 12.8145 67.7554 12.8145C70.5881 12.8145 72.8813 10.5213 72.8813 7.68861C72.8813 4.85586 70.5881 2.56271 67.7554 2.56271Z" fill="#EB6320"/>
<path d="M7.05266 74.9998C4.21991 74.9998 1.92676 72.7067 1.92676 69.8739C1.92676 67.0412 4.21991 64.748 7.05266 64.748C9.8854 64.748 12.1786 67.0412 12.1786 69.8739C12.1786 72.7067 9.8854 74.9998 7.05266 74.9998ZM7.05266 66.6365C5.16416 66.6365 3.68034 68.1204 3.68034 70.0088C3.68034 71.8973 5.16416 73.3812 7.05266 73.3812C8.94115 73.3812 10.425 71.8973 10.425 70.0088C10.425 68.1204 8.94115 66.6365 7.05266 66.6365Z" fill="#EB6320"/>
<path d="M7.0537 65.6929C9.34688 65.6929 11.2353 67.5814 11.2353 69.8745C11.2353 72.1677 9.34688 74.0562 7.0537 74.0562C4.76053 74.0562 2.87207 72.1677 2.87207 69.8745C2.87207 67.5814 4.76053 65.6929 7.0537 65.6929Z" fill="white"/>
<path d="M67.7546 1.61914C71.0325 1.61914 73.6899 4.27651 73.6899 7.5544C73.6899 10.8323 71.0325 13.4897 67.7546 13.4897C64.4767 13.4897 61.8193 10.8323 61.8193 7.5544C61.8193 4.27651 64.4767 1.61914 67.7546 1.61914Z" fill="white"/>
<path d="M22.1607 38.7144C20.2722 38.7144 18.9233 40.1982 18.9233 42.0867C18.9233 43.9752 20.4071 45.459 22.2956 45.459H23.9143C26.3424 50.0454 31.1985 53.1479 36.5942 53.1479C44.5529 53.1479 51.0277 46.6731 51.0277 38.7144C52.9162 38.7144 54.2651 37.2306 54.2651 35.3421C54.2651 33.4536 52.7813 31.9698 50.8928 31.9698H49.2741C46.846 27.3835 42.1248 24.281 36.5942 24.281C28.6356 24.4158 22.1607 30.8907 22.1607 38.7144ZM69.7777 33.7234V43.8404L60.0655 44.9195C59.5259 47.0778 58.5817 49.2361 57.5026 51.1245L63.7076 58.6785L56.4234 65.8278L48.8694 59.6228C46.9809 60.7019 44.8227 61.6461 42.6644 62.1857L41.5852 71.898H31.4683L30.3891 62.1857C28.2309 61.6461 26.0726 60.7019 24.1841 59.6228L16.6301 65.8278L9.4808 58.6785L15.6859 51.1245C14.6068 49.2361 13.6625 47.0778 13.1229 44.9195L3.41064 43.8404V33.7234L13.1229 32.6443C13.6625 30.486 14.6068 28.3277 15.6859 26.4392L9.4808 18.8853L16.6301 11.7359L24.1841 17.941C26.0726 16.8619 28.2309 15.9176 30.3891 15.378L31.4683 5.66577H41.5852L42.6644 15.378C44.8227 15.9176 46.9809 16.8619 48.8694 17.941L56.4234 11.7359L63.5727 18.8853L57.3676 26.4392C58.4468 28.3277 59.391 30.486 59.9306 32.6443L69.7777 33.7234Z" fill="white"/>
<path d="M72.342 21.179C73.0165 21.179 73.556 21.7185 73.556 22.393C73.556 23.0674 73.0165 23.607 72.342 23.607C71.6675 23.607 71.1279 23.0674 71.1279 22.393C71.1279 21.7185 71.6675 21.179 72.342 21.179Z" fill="#EB6320"/>
<path d="M69.9137 52.3374C70.5882 52.3374 71.1278 52.877 71.1278 53.5514C71.1278 54.2259 70.5882 54.7655 69.9137 54.7655C69.2392 54.7655 68.6997 54.2259 68.6997 53.5514C68.6997 52.877 69.2392 52.3374 69.9137 52.3374Z" fill="#EB6320"/>
<path d="M53.0519 70.0083C53.7263 70.0083 54.2659 70.5479 54.2659 71.2223C54.2659 71.8968 53.7263 72.4363 53.0519 72.4363C52.3774 72.4363 51.8379 71.8968 51.8379 71.2223C51.8379 70.5479 52.3774 70.0083 53.0519 70.0083Z" fill="#EB6320"/>
<path d="M52.1086 3.37207C52.7831 3.37207 53.3226 3.91163 53.3226 4.58609C53.3226 5.26056 52.7831 5.80012 52.1086 5.80012C51.4341 5.80012 50.8945 5.26056 50.8945 4.58609C50.8945 3.91163 51.4341 3.37207 52.1086 3.37207Z" fill="#EB6320"/>
<path d="M24.3195 70.0083C24.9939 70.0083 25.5335 70.5479 25.5335 71.2223C25.5335 71.8968 24.9939 72.4363 24.3195 72.4363C23.645 72.4363 23.1055 71.8968 23.1055 71.2223C23.1055 70.5479 23.645 70.0083 24.3195 70.0083Z" fill="#EB6320"/>
<path d="M21.757 0C22.4315 0 22.971 0.539562 22.971 1.21402C22.971 1.88849 22.4315 2.42805 21.757 2.42805C21.0826 2.42805 20.543 1.88849 20.543 1.21402C20.543 0.539562 21.0826 0 21.757 0Z" fill="#EB6320"/>
<path d="M4.08605 11.0613C4.76052 11.0613 5.30012 11.6008 5.30012 12.2753C5.30012 12.9498 4.76052 13.4894 4.08605 13.4894C3.41159 13.4894 2.87207 12.9498 2.87207 12.2753C2.87207 11.6008 3.41159 11.0613 4.08605 11.0613Z" fill="#EB6320"/>
<path d="M1.52315 48.9663C2.19761 48.9663 2.73713 49.5059 2.73713 50.1803C2.73713 50.8548 2.19761 51.3944 1.52315 51.3944C0.848685 51.3944 0.309082 50.8548 0.309082 50.1803C0.309082 49.5059 0.848685 48.9663 1.52315 48.9663Z" fill="#EB6320"/>
<path d="M41.5866 72.8411H31.4696C31.065 72.8411 30.6603 72.5713 30.6603 72.0317L29.7161 62.859C27.8276 62.3194 26.074 61.645 24.3204 60.5658L17.1711 66.5011C16.9013 66.7709 16.3617 66.7709 16.092 66.5011L8.94268 59.3518C8.67289 59.082 8.67289 58.5424 8.94268 58.2727L14.743 51.1234C13.7988 49.3698 12.9894 47.6162 12.4498 45.7277L3.27718 44.7834C2.8725 44.7834 2.46777 44.3787 2.46777 43.974V33.8571C2.46777 33.4524 2.73761 33.0478 3.27718 33.0478L12.4498 32.1035C12.9894 30.215 13.6639 28.4614 14.743 26.7078L8.94268 19.5585C8.67289 19.2888 8.67289 18.7492 8.94268 18.4794L16.092 11.3301C16.3617 11.0603 16.9013 11.0603 17.1711 11.3301L24.3204 17.1304C26.074 16.1862 27.8276 15.3769 29.7161 14.8373L30.6603 5.66459C30.6603 5.25991 31.065 4.85522 31.4696 4.85522H41.5866C41.9913 4.85522 42.396 5.12502 42.396 5.66459L43.3402 14.8373C45.2287 15.3769 46.9823 16.0513 48.7359 17.1304L55.8852 11.3301C56.155 11.0603 56.6946 11.0603 56.9644 11.3301L64.1136 18.4794C64.3834 18.7492 64.3834 19.2888 64.1136 19.5585L58.3133 26.7078C59.2575 28.4614 60.0669 30.215 60.6065 32.1035L69.7791 33.0478C70.1838 33.0478 70.5885 33.4524 70.5885 33.8571V43.974C70.5885 44.3787 70.3187 44.7834 69.7791 44.7834L60.7413 45.5928C60.2018 47.4813 59.5273 49.2349 58.4481 50.9885L64.2486 58.1378C64.5184 58.4075 64.5184 58.9471 64.2486 59.2169L57.0992 66.3662C56.8294 66.636 56.2899 66.636 56.0201 66.3662L48.8708 60.5658C47.1172 61.5101 45.3636 62.3194 43.4751 62.859L42.5308 72.0317C42.396 72.4364 42.1262 72.8411 41.5866 72.8411ZM32.2791 71.0874H40.9121L41.8564 62.1845C41.8564 61.7799 42.1262 61.5101 42.5308 61.5101C44.5542 60.9705 46.5776 60.1612 48.601 59.082C48.8708 58.9471 49.2755 58.9471 49.5453 59.2169L56.5597 64.8824L62.6299 58.8122L56.9644 51.7978C56.6946 51.528 56.6946 51.1234 56.8295 50.8536C57.9086 48.9651 58.8529 46.9417 59.2575 44.7834C59.3924 44.3787 59.6622 44.2438 59.932 44.1089L68.8349 43.1647V34.5316L59.932 33.4524C59.5273 33.4524 59.2575 33.1827 59.2575 32.778C58.718 30.6197 57.9086 28.5963 56.8295 26.7078C56.6946 26.438 56.6946 26.0333 56.9644 25.7636L62.6299 18.7492L56.5597 12.679L49.5453 18.3445C49.2755 18.6143 48.8708 18.6143 48.601 18.4794C46.7125 17.4002 44.6891 16.456 42.5308 16.0513C42.1262 15.9164 41.9913 15.6466 41.8564 15.3769L40.9121 6.47395H32.2791L31.3348 15.3769C31.3348 15.7815 31.065 16.0513 30.6603 16.0513C28.502 16.5909 26.4787 17.4002 24.5902 18.6143C24.3204 18.7492 23.9157 18.7492 23.6459 18.4794L16.6315 12.8139L10.5613 18.8841L16.2268 25.8985C16.4966 26.1682 16.4967 26.5729 16.3618 26.8427C15.2826 28.7312 14.3383 30.7546 13.9336 32.9129C13.7987 33.1827 13.529 33.4524 13.1243 33.4524L4.22144 34.3967V43.0298L13.1243 43.974C13.529 43.974 13.7988 44.2438 13.7988 44.6485C14.3383 46.6719 15.1477 48.6953 16.2268 50.7187C16.3617 50.9885 16.3617 51.3932 16.092 51.6629L10.4265 58.6774L16.4966 64.7475L23.511 59.082C23.7808 58.8122 24.1855 58.8122 24.4553 58.9471C26.3438 60.0263 28.3672 60.9705 30.5255 61.3752C30.9301 61.5101 31.065 61.7799 31.1999 62.0497L32.2791 71.0874Z" fill="#EB6320"/>
<path d="M22.1619 39.6581C21.7573 39.6581 21.3525 39.2534 21.3525 38.8487C21.3525 36.4206 22.0271 33.8577 23.1062 31.6994C23.376 31.2947 23.7807 31.1598 24.1853 31.2947C24.59 31.5645 24.7249 31.9692 24.59 32.3739C23.5109 34.2624 22.9713 36.5555 22.9713 38.7138C22.9713 39.2534 22.5666 39.6581 22.1619 39.6581Z" fill="#EB6320"/>
<path d="M49.275 32.9151C49.0052 32.9151 48.7355 32.7802 48.4657 32.5104C46.0376 28.059 41.4513 25.3612 36.4602 25.3612C31.4692 25.3612 26.8829 28.059 24.4549 32.5104C24.1851 32.9151 23.7803 33.05 23.3757 32.9151C22.971 32.6454 22.8361 32.2407 22.971 31.836C25.6688 26.845 30.7948 23.7424 36.4602 23.7424C42.1257 23.7424 47.2516 26.845 49.9495 31.836C50.2193 32.2407 49.9495 32.7803 49.5448 32.9151C49.5448 32.7803 49.4099 32.9151 49.275 32.9151Z" fill="#EB6320"/>
<path d="M36.5954 53.9572C30.9299 53.9572 25.804 50.8547 23.1062 45.8636C22.8364 45.459 23.1061 44.9194 23.5108 44.7845C23.9155 44.6496 24.455 44.7845 24.5899 45.1892C27.018 49.6406 31.6044 52.3385 36.5954 52.3385C41.5864 52.3385 46.1727 49.6406 48.6008 45.1892C48.8706 44.7845 49.2752 44.6496 49.6799 44.7845C50.0846 45.0543 50.2195 45.459 50.0846 45.8636C47.3868 50.8547 42.2609 53.9572 36.5954 53.9572Z" fill="#EB6320"/>
<path d="M49.2754 46.4027C49.1405 46.4027 49.0057 46.4026 48.8708 46.2678C48.4661 45.998 48.3312 45.5933 48.4661 45.1886C49.5453 43.3001 50.0848 41.0069 50.0848 38.8487C50.0848 38.444 50.4895 38.0393 50.8942 38.0393C51.2988 38.0393 51.7035 38.444 51.7035 38.8487C51.7035 41.2767 51.029 43.8397 49.9499 45.998C49.815 46.1328 49.5452 46.4027 49.2754 46.4027Z" fill="#EB6320"/>
<path d="M51.7031 49.7747C51.4333 49.7747 51.1635 49.6398 51.0286 49.5049C50.7588 49.1002 50.7589 48.5606 51.1635 48.2908L53.4567 46.4024H22.2965C21.2174 46.4024 20.1382 45.9977 19.3289 45.1883C18.5195 44.379 18.1149 43.2998 18.1149 42.2207C18.1149 39.9275 20.0034 38.039 22.1617 38.039H50.8937C51.5682 38.039 52.1078 37.7692 52.6473 37.3645C53.1869 36.825 53.3218 36.2854 53.3218 35.611C53.3218 34.262 52.2427 33.048 50.7589 33.048H17.9799C17.5753 33.048 17.3055 32.7782 17.1706 32.5084C17.0357 32.2386 17.1706 31.834 17.3055 31.5642L21.4872 27.3825C21.757 27.1127 22.2965 27.1127 22.7012 27.3825C22.971 27.6523 22.971 28.1919 22.7012 28.5965L19.8685 31.4293H50.8937C53.1869 31.4293 55.0754 33.3178 55.0754 35.611C55.0754 36.6901 54.6707 37.7692 53.8614 38.5786C53.052 39.3879 52.1077 39.7926 51.0286 39.7926H22.1617C20.8127 39.7926 19.7336 41.0067 19.7336 42.3556C19.7336 43.03 20.0034 43.7045 20.4081 44.1092C20.9476 44.6487 21.4872 44.7836 22.1617 44.7836H55.8848C56.2895 44.7836 56.5592 45.0534 56.6941 45.3232C56.829 45.7279 56.6941 45.9977 56.4243 46.2675L52.2427 49.5049C52.1078 49.6398 51.9729 49.7747 51.7031 49.7747Z" fill="#EB6320"/>
<path d="M67.7554 14.2983C63.9784 14.2983 61.0107 11.3307 61.0107 7.55371C61.0107 3.77672 63.9784 0.809082 67.7554 0.809082C71.5324 0.809082 74.5 3.77672 74.5 7.55371C74.5 11.3307 71.5324 14.2983 67.7554 14.2983ZM67.7554 2.56271C64.9226 2.56271 62.6295 4.85586 62.6295 7.68861C62.6295 10.5213 64.9226 12.8145 67.7554 12.8145C70.5881 12.8145 72.8813 10.5213 72.8813 7.68861C72.8813 4.85586 70.5881 2.56271 67.7554 2.56271Z" fill="#EB6320"/>
<path d="M7.05266 74.9998C4.21991 74.9998 1.92676 72.7067 1.92676 69.8739C1.92676 67.0412 4.21991 64.748 7.05266 64.748C9.8854 64.748 12.1786 67.0412 12.1786 69.8739C12.1786 72.7067 9.8854 74.9998 7.05266 74.9998ZM7.05266 66.6365C5.16416 66.6365 3.68034 68.1204 3.68034 70.0088C3.68034 71.8973 5.16416 73.3812 7.05266 73.3812C8.94115 73.3812 10.425 71.8973 10.425 70.0088C10.425 68.1204 8.94115 66.6365 7.05266 66.6365Z" fill="#EB6320"/>
</svg>
